<?xml version="1.0" encoding="UTF-8" standalone="no"?>
<!DOCTYPE svg PUBLIC "-//W3C//DTD SVG 1.1//EN" "http://www.w3.org/Graphics/SVG/1.1/DTD/svg11.dtd">
<svg class='pointer' id='linked_in' width="100%" height="100%" viewBox="0 0 800 800" version="1.1" xmlns="http://www.w3.org/2000/svg" xmlns:xlink="http://www.w3.org/1999/xlink" xml:space="preserve" xmlns:serif="http://www.serif.com/" style="fill-rule:evenodd;clip-rule:evenodd;stroke-linecap:round;stroke-linejoin:round;stroke-miterlimit:1.5;">
    <g id="Border" class='pointer' transform="matrix(1.29692,0,0,1.26462,-204.613,-223.395)">
        <path fill='none' stroke='black' stroke-width='7.03px' d="M234.409,448.301L222.465,596.474L218.571,700.952C218.571,722.819 235.882,740.571 257.204,740.571L308.258,743.73L443.987,736.043L584.081,742.107L604.532,741.097L615.281,751.24L684.995,745.309C706.317,745.309 713.81,722.819 713.81,700.952L709.767,609.837L712.775,510.262L723.18,508.088L712.627,492.952L716.12,273.502C712.916,244.055 721.725,243.77 692.888,244.149L513.282,239.31L344.069,247.615L251.043,243.359C229.722,243.359 218.571,263.086 218.571,284.952L222.999,367.493L232.484,421.254L239.377,430.1L234.409,448.301"/>
    </g>
    <g id="Text" class='pointer' transform="matrix(55.5604,0,0,55.5604,-11033,-18758.8)">
        <path fill='none' fill-rule='nonzero' stroke='black' stroke-width='0.07px' stroke-linecap='butt' stroke-miterlimit='2' d="M202.95,344.446L202.902,345.178L202.866,345.586L202.866,348.946L202.758,349.714L202.95,349.726L203.178,349.738L203.442,349.666L203.466,349.462L203.418,349.222L203.394,348.97L203.394,345.406L203.382,345.346L203.37,345.118L203.346,344.77L203.298,344.182L203.334,343.535L203.37,341.855L203.43,341.507L203.466,340.895L202.986,340.799L202.77,340.859L202.806,341.195L202.854,344.063L202.95,344.446Z"/>
        <path fill='none' fill-rule='nonzero' stroke='black' stroke-width='0.07px' stroke-linecap='butt' stroke-miterlimit='2' d="M209.01,348.958L209.034,348.502L208.926,345.682L208.89,344.71L209.034,341.519L209.058,340.943L208.818,340.895L208.398,340.907L208.41,341.615L208.506,341.771L208.518,341.771L208.398,341.807L208.422,342.203L208.434,343.091L208.47,344.003L208.422,344.075L208.386,344.075L207.474,342.827L207.366,342.755L207.042,342.191L205.986,340.775L205.422,340.931L205.422,341.339L205.482,341.903L205.506,342.683L205.542,343.475L205.506,346.09L205.578,346.282L205.626,346.366L205.518,346.822L205.482,347.65L205.434,348.622L205.434,348.886L205.446,349.03L205.386,349.726L205.686,349.774L206.07,349.75L206.094,349.27L206.07,349.078L206.07,347.71L206.022,347.254L205.974,346.786L205.998,343.895L205.914,343.703L205.902,343.667L206.01,342.911L206.01,341.819L206.022,341.747L206.058,341.723L206.25,341.903L206.55,342.287L206.658,342.419L206.946,342.779L207.45,343.487L207.834,343.991L208.014,344.314L208.17,344.65L208.458,345.238L208.47,346.282L208.53,346.57L208.59,346.846L208.482,346.87L208.446,347.83L208.482,348.526L208.482,349.054L208.446,349.75L208.566,349.774L209.034,349.762L209.094,349.642L209.01,348.958Z"/>
        <g class='pointer' transform="matrix(0.0299201,0,0,0.0299201,195.444,334.903)">
            <path id='dot' d="M259.572,168.892L256.557,168.327L246.495,174.299L246.016,177.919L252.234,184.3L253.236,184.906L262.317,187.606L265.195,186.077L267.077,180.105L266.689,177.973L259.572,168.892ZM257.743,170.326L247.681,176.298L253.898,182.679L262.979,185.379L264.86,179.406L257.743,170.326Z"/>
        </g>
    </g>
</svg>
