<?xml version="1.0" encoding="UTF-8" standalone="no"?>
<!DOCTYPE svg PUBLIC "-//W3C//DTD SVG 1.1//EN" "http://www.w3.org/Graphics/SVG/1.1/DTD/svg11.dtd">
<svg class='pointer' id='mail' width="100%" height="100%" viewBox="0 0 800 800" version="1.1" xmlns="http://www.w3.org/2000/svg" xmlns:xlink="http://www.w3.org/1999/xlink" xml:space="preserve" xmlns:serif="http://www.serif.com/" style="fill-rule:evenodd;clip-rule:evenodd;stroke-linecap:round;stroke-linejoin:round;stroke-miterlimit:1.5;">
    <g class='pointer' id="Border" transform="matrix(1.29692,0,0,1.26462,-204.613,-223.395)">
        <path fill='transporent' stroke='black' stroke-width='0.439em' d="M234.409,448.301L222.465,596.474L218.571,700.952C218.571,722.819 235.882,740.571 257.204,740.571L308.258,743.73L443.987,736.043L584.081,742.107L604.532,741.097L615.281,751.24L684.995,745.309C706.317,745.309 713.81,722.819 713.81,700.952L709.767,609.837L712.775,510.262L723.18,508.088L712.627,492.952L716.12,273.502C712.916,244.055 721.725,243.77 692.888,244.149L513.282,239.31L344.069,247.615L251.043,243.359C229.722,243.359 218.571,263.086 218.571,284.952L222.999,367.493L232.484,421.254L239.377,430.1L234.409,448.301"/>
    </g>
    <g class='pointer' id="letter" transform="matrix(20.5186,0,0,20.5186,51.1833,51.1833)">
        <g  class='pointer'id="header" transform="matrix(0.0487362,0,0,0.0487362,-2.49448,-2.49448)">
            <path fill='transporent' stroke='black' stroke-width='0.01em' stroke-linecap='butt' stroke-miterlimit='2' d="M217.116,258.812L589.033,258.812C589.033,258.812 485.335,324.185 485.335,324.185L399.681,383.927C399.681,383.927 306.582,321.522 306.582,321.522L217.116,258.812Z"/>
        </g>
        <g  class='pointer'id="borders" transform="matrix(1.24623,0,0,1.24623,2.04593,2.03105)">
            <path fill='transporent' stroke='black' stroke-width='0.01em' stroke-linecap='butt' stroke-miterlimit='2' d="M21.298,14.05L21.346,12.011C21.346,12.011 21.448,7.911 21.482,6.513C21.49,6.218 21.382,5.932 21.183,5.714C21.183,5.714 21.183,5.714 21.183,5.714C21.077,5.599 20.928,5.533 20.772,5.532C18.882,5.525 6.639,5.479 3.265,5.467C3.039,5.466 2.823,5.556 2.665,5.718C2.507,5.879 2.421,6.097 2.427,6.323C2.477,8.292 2.596,12.961 2.596,12.961C2.596,12.961 2.556,16.319 2.539,17.796C2.537,17.977 2.607,18.151 2.734,18.279C2.861,18.408 3.034,18.481 3.215,18.481C4.775,18.484 8.465,18.49 8.465,18.49L11.451,18.357L15.394,18.49C15.394,18.49 19.214,18.493 20.773,18.494C20.945,18.494 21.11,18.425 21.231,18.303C21.352,18.181 21.42,18.016 21.419,17.844C21.413,16.702 21.402,14.456 21.402,14.456L21.167,14.348L21.298,14.05ZM4.847,6.49L19.392,6.49C19.392,6.49 15.337,9.047 15.337,9.047L11.987,11.383C11.987,11.383 8.346,8.942 8.346,8.942L4.847,6.49Z" />
        </g>
        <g class='pointer' id="body" transform="matrix(1.24623,0,0,1.24623,2.04593,2.03105)">
            <path fill='transporent' stroke='black' stroke-width='0.01em' stroke-linecap='butt' stroke-miterlimit='2' d="M3.51,10.555L3.49,6.49C3.49,6.49 11.649,12.433 11.989,12.681C11.995,12.685 12.004,12.685 12.01,12.681C12.349,12.433 20.495,6.49 20.495,6.49C20.495,6.49 20.387,12.011 20.387,12.011L20.495,17.533C20.495,17.533 3.501,17.533 3.501,17.533C3.501,17.533 3.691,10.991 3.691,10.991L3.805,10.547L3.51,10.555Z" />
        </g>
    </g>
</svg>
