<?xml version="1.0" encoding="UTF-8" standalone="no"?>
<!DOCTYPE svg PUBLIC "-//W3C//DTD SVG 1.1//EN" "http://www.w3.org/Graphics/SVG/1.1/DTD/svg11.dtd">
<svg width="100%" height="100%" viewBox="0 0 800 800" version="1.1" xmlns="http://www.w3.org/2000/svg" xmlns:xlink="http://www.w3.org/1999/xlink" xml:space="preserve" xmlns:serif="http://www.serif.com/" style="fill-rule:evenodd;clip-rule:evenodd;stroke-linejoin:round;stroke-miterlimit:2;">
    <g transform="matrix(1,0,0,1,1.16892,28.7031)">
        <g id="leafage">
            <g transform="matrix(2.6067,0,0,2.6067,-49.8708,-487.729)">
                <path  d="M277.569,372.994C281.42,367.699 282.553,363.278 282.553,363.278C276.635,361.928 274.579,364.734 273.865,366.863C273.555,367.787 273.5,368.772 273.533,369.746C273.754,376.376 269.062,380.324 269.062,380.324C288.088,382.277 284.619,366.444 284.619,366.444C281.485,371.621 277.569,372.994 277.569,372.994Z" style="fill-rule:nonzero;stroke-width:0.38px;"/>
            </g>
            <g transform="matrix(2.6067,0,0,2.6067,-49.8708,-487.729)">
                <path  d="M283.403,340.239C278.766,344.127 274.617,344.163 274.617,344.163C279.971,340.394 282.471,336.576 282.471,336.576C277.305,333.388 274.453,335.38 273.09,337.165C272.499,337.938 272.129,338.854 271.845,339.786C269.915,346.132 264.199,348.354 264.199,348.354C281.575,356.345 283.403,340.239 283.403,340.239Z" style="fill-rule:nonzero;stroke-width:0.38px;"/>
            </g>
            <g transform="matrix(2.6067,0,0,2.6067,-49.8708,-487.729)">
                <path d="M275.677,322.645C271.04,326.532 266.89,326.568 266.89,326.568C272.245,322.799 274.744,318.98 274.744,318.98C269.579,315.793 266.727,317.785 265.363,319.569C264.772,320.343 264.403,321.259 264.119,322.19C262.188,328.537 256.471,330.759 256.471,330.759C273.849,338.75 275.677,322.645 275.677,322.645Z" style="fill-rule:nonzero;stroke-width:0.38px;"/>
            </g>
            <g transform="matrix(2.6067,0,0,2.6067,-49.8708,-487.729)">
                <path d="M297.996,347.219C301,352.472 300.299,356.562 300.299,356.562C297.54,350.625 294.225,347.487 294.225,347.487C290.171,352.006 291.626,355.166 293.141,356.824C293.798,357.543 294.633,358.069 295.5,358.513C301.404,361.539 302.577,367.558 302.577,367.558C313.522,351.874 297.996,347.219 297.996,347.219Z" style="fill-rule:nonzero;stroke-width:0.38px;"/>
            </g>
            <g transform="matrix(2.6067,0,0,2.6067,-49.8708,-487.729)">
                <path d="M296.849,324.861C301.455,328.786 302.181,332.871 302.181,332.871C297.573,328.219 293.392,326.39 293.392,326.39C291.108,332.015 293.547,334.495 295.534,335.542C296.396,335.997 297.359,336.208 298.326,336.333C304.905,337.18 308.047,342.446 308.047,342.446C313.034,323.982 296.849,324.861 296.849,324.861Z" style="fill-rule:nonzero;stroke-width:0.38px;"/>
            </g>
            <g transform="matrix(2.6067,0,0,2.6067,-49.8708,-487.729)">
                <path d="M292.475,299.647C297.081,303.573 297.807,307.658 297.807,307.658C293.199,303.006 289.018,301.177 289.018,301.177C286.734,306.802 289.173,309.282 291.16,310.329C292.021,310.784 292.985,310.995 293.952,311.12C300.531,311.967 303.673,317.233 303.673,317.233C308.66,298.769 292.475,299.647 292.475,299.647Z" style="fill-rule:nonzero;stroke-width:0.38px;"/>
            </g>
            <g transform="matrix(2.6067,0,0,2.6067,-49.8708,-487.729)">
                <path d="M294.416,287.264C288.973,283.625 284.51,282.667 284.51,282.667C283.396,288.634 286.28,290.578 288.436,291.208C289.371,291.481 290.358,291.496 291.33,291.425C297.946,290.943 302.075,295.476 302.075,295.476C303.277,276.388 287.593,280.479 287.593,280.479C292.89,283.406 294.416,287.264 294.416,287.264Z" style="fill-rule:nonzero;stroke-width:0.38px;"/>
            </g>
            <g transform="matrix(2.6067,0,0,2.6067,-49.8708,-487.729)">
                <path d="M260.262,311.506C255.625,315.394 251.476,315.43 251.476,315.43C256.829,311.661 259.329,307.842 259.329,307.842C254.164,304.655 251.312,306.646 249.949,308.431C249.357,309.205 248.988,310.12 248.705,311.052C246.773,317.399 241.058,319.621 241.058,319.621C258.433,327.612 260.262,311.506 260.262,311.506Z" style="fill-rule:nonzero;stroke-width:0.38px;"/>
            </g>
            <g transform="matrix(2.6067,0,0,2.6067,-49.8708,-487.729)">
                <path d="M274.191,285.971C274.191,285.971 264.502,280.89 262.383,293.624C262.383,293.624 265.789,291.272 270.066,292.598C270.694,292.793 271.345,292.933 272.001,292.896C273.515,292.811 275.708,291.973 275.884,287.879C275.884,287.879 272.804,287.829 268.67,289.392C268.67,289.392 270.263,287.087 274.191,285.971Z" style="fill-rule:nonzero;stroke-width:0.38px;"/>
            </g>
            <g transform="matrix(2.6067,0,0,2.6067,-49.8708,-487.729)">
                <path d="M276.768,257.511C270.815,254.783 266.258,254.546 266.258,254.546C266.104,260.614 269.261,262.075 271.49,262.354C272.456,262.476 273.433,262.334 274.381,262.11C280.836,260.583 285.634,264.402 285.634,264.402C283.789,245.366 268.954,251.896 268.954,251.896C274.647,253.944 276.768,257.511 276.768,257.511Z" style="fill-rule:nonzero;stroke-width:0.38px;"/>
            </g>
            <g transform="matrix(2.6067,0,0,2.6067,-49.8708,-487.729)">
                <path d="M226.104,253.771C226.104,253.771 232.236,253.867 236.253,259.146C236.843,259.921 237.507,260.65 238.331,261.171C240.229,262.37 243.596,263.246 247.331,258.461C247.331,258.461 243.66,255.75 237.329,254.078C237.329,254.078 241.232,252.668 246.932,254.702C246.932,254.702 239.618,240.237 226.104,253.771Z" style="fill-rule:nonzero;stroke-width:0.38px;"/>
            </g>
            <g transform="matrix(2.6067,0,0,2.6067,-49.8708,-487.729)">
                <path d="M262.081,231.919C255.533,231.904 251.287,233.577 251.287,233.577C253.663,239.163 257.14,239.184 259.285,238.515C260.215,238.224 261.045,237.69 261.815,237.093C267.057,233.028 273.006,234.516 273.006,234.516C263.437,217.956 252.642,230.047 252.642,230.047C258.673,229.552 262.081,231.919 262.081,231.919Z" style="fill-rule:nonzero;stroke-width:0.38px;"/>
            </g>
            <g transform="matrix(2.6067,0,0,2.6067,-49.8708,-487.729)">
                <path d="M253.672,274.112C253.672,274.112 250.802,263.555 240.029,270.668C240.029,270.668 244.07,271.563 246.009,275.6C246.294,276.192 246.634,276.765 247.108,277.221C248.201,278.271 250.307,279.308 253.426,276.651C253.426,276.651 251.367,274.36 247.409,272.395C247.409,272.395 250.181,271.993 253.672,274.112Z" style="fill-rule:nonzero;stroke-width:0.38px;"/>
            </g>
            <g transform="matrix(2.6067,0,0,2.6067,-49.8708,-487.729)">
                <path d="M239.461,215.049C233.08,216.514 229.321,219.104 229.321,219.104C232.899,224.008 236.292,223.243 238.229,222.106C239.069,221.613 239.757,220.905 240.372,220.149C244.559,215.004 250.69,215.108 250.69,215.108C237.625,201.141 229.843,215.36 229.843,215.36C235.606,213.513 239.461,215.049 239.461,215.049Z" style="fill-rule:nonzero;stroke-width:0.38px;"/>
            </g>
            <g transform="matrix(2.6067,0,0,2.6067,-49.8708,-487.729)">
                <path d="M236.965,288.721C248.571,273.52 233.258,268.205 233.258,268.205C236.035,273.582 235.16,277.638 235.16,277.638C232.656,271.588 229.479,268.312 229.479,268.312C225.236,272.653 226.554,275.872 227.997,277.594C228.623,278.34 229.434,278.901 230.282,279.382C236.05,282.658 236.965,288.721 236.965,288.721Z" style="fill-rule:nonzero;stroke-width:0.38px;"/>
            </g>
            <g transform="matrix(2.6067,0,0,2.6067,-49.8708,-487.729)">
                <path d="M235.28,310.902C231.389,315.537 227.309,316.293 227.309,316.293C231.927,311.651 233.725,307.457 233.725,307.457C228.083,305.215 225.622,307.672 224.589,309.667C224.141,310.532 223.937,311.497 223.819,312.464C223.021,319.05 217.778,322.231 217.778,322.231C236.278,327.081 235.28,310.902 235.28,310.902Z" style="fill-rule:nonzero;stroke-width:0.38px;"/>
            </g>
            <g transform="matrix(2.6067,0,0,2.6067,-49.8708,-487.729)">
                <path d="M222.946,292.099C223.339,293.563 224.609,295.538 228.651,294.873C228.651,294.873 228.07,291.848 225.694,288.122C225.694,288.122 228.276,289.208 230.173,292.825C230.173,292.825 233.163,282.301 220.265,282.833C220.265,282.833 223.264,285.687 222.841,290.144C222.779,290.798 222.775,291.464 222.946,292.099Z" style="fill-rule:nonzero;stroke-width:0.38px;"/>
            </g>
            <g transform="matrix(2.6067,0,0,2.6067,-49.8708,-487.729)">
                <path d="M216.262,206.845C210.702,210.303 207.988,213.972 207.988,213.972C212.964,217.449 215.925,215.624 217.388,213.919C218.022,213.18 218.443,212.288 218.779,211.374C221.069,205.147 226.902,203.255 226.902,203.255C210.01,194.286 207.267,210.261 207.267,210.261C212.118,206.644 216.262,206.845 216.262,206.845Z" style="fill-rule:nonzero;stroke-width:0.38px;"/>
            </g>
            <g transform="matrix(2.6067,0,0,2.6067,-49.8708,-487.729)">
                <path d="M221.461,240.177C225.925,238.793 228.891,240.007 228.891,240.007C223.952,241.092 221.03,243.065 221.03,243.065C223.757,246.879 226.383,246.312 227.888,245.448C228.54,245.074 229.077,244.532 229.557,243.953C232.829,240.01 237.563,240.135 237.563,240.135C227.575,229.252 221.461,240.177 221.461,240.177Z" style="fill-rule:nonzero;stroke-width:0.38px;"/>
            </g>
            <g transform="matrix(2.6067,0,0,2.6067,-49.8708,-487.729)">
                <path d="M189.988,243.656C190.959,243.727 191.946,243.712 192.881,243.438C195.037,242.809 197.921,240.865 196.807,234.898C196.807,234.898 192.344,235.856 186.901,239.495C186.901,239.495 188.428,235.637 193.724,232.709C193.724,232.709 178.04,228.619 179.242,247.707C179.242,247.707 183.372,243.174 189.988,243.656Z" style="fill-rule:nonzero;stroke-width:0.38px;"/>
            </g>
            <g transform="matrix(2.6067,0,0,2.6067,-49.8708,-487.729)">
                <path d="M188.115,269.198C188.115,269.198 193.162,265.714 199.499,267.679C200.429,267.967 201.394,268.175 202.366,268.121C204.608,267.994 207.857,266.752 208.119,260.688C208.119,260.688 203.556,260.613 197.431,262.928C197.431,262.928 199.79,259.514 205.611,257.859C205.611,257.859 191.255,250.332 188.115,269.198Z" style="fill-rule:nonzero;stroke-width:0.38px;"/>
            </g>
            <g transform="matrix(2.6067,0,0,2.6067,-49.8708,-487.729)">
                <path d="M190.244,296.026C190.244,296.026 193.65,293.675 197.926,295.001C198.554,295.196 199.206,295.336 199.862,295.299C201.375,295.213 203.568,294.375 203.745,290.282C203.745,290.282 200.665,290.232 196.531,291.795C196.531,291.795 198.123,289.49 202.052,288.374C202.052,288.374 192.363,283.292 190.244,296.026Z" style="fill-rule:nonzero;stroke-width:0.38px;"/>
            </g>
            <g transform="matrix(2.6067,0,0,2.6067,-49.8708,-487.729)">
                <path d="M185.924,210.011C183.51,214.456 183.089,217.955 183.089,217.955C187.757,218.39 189.048,216.034 189.38,214.332C189.524,213.593 189.466,212.833 189.342,212.091C188.503,207.036 191.697,203.539 191.697,203.539C176.931,203.966 181.188,215.739 181.188,215.739C183.064,211.458 185.924,210.011 185.924,210.011Z" style="fill-rule:nonzero;stroke-width:0.38px;"/>
            </g>
            <g transform="matrix(2.6067,0,0,2.6067,-49.8708,-487.729)">
                <path d="M151.387,243.438C152.322,243.712 153.309,243.727 154.281,243.656C160.897,243.174 165.027,247.707 165.027,247.707C166.229,228.619 150.544,232.709 150.544,232.709C155.841,235.637 157.368,239.495 157.368,239.495C151.924,235.856 147.462,234.898 147.462,234.898C146.347,240.865 149.231,242.809 151.387,243.438Z" style="fill-rule:nonzero;stroke-width:0.38px;"/>
            </g>
            <g transform="matrix(2.6067,0,0,2.6067,-49.8708,-487.729)">
                <path d="M141.902,268.121C142.875,268.175 143.839,267.967 144.77,267.679C151.106,265.714 156.153,269.198 156.153,269.198C153.013,250.332 138.658,257.859 138.658,257.859C144.479,259.514 146.837,262.928 146.837,262.928C140.712,260.613 136.149,260.688 136.149,260.688C136.411,266.752 139.66,267.994 141.902,268.121Z" style="fill-rule:nonzero;stroke-width:0.38px;"/>
            </g>
            <g transform="matrix(2.6067,0,0,2.6067,-49.8708,-487.729)">
                <path d="M142.217,288.374C146.146,289.49 147.737,291.795 147.737,291.795C143.604,290.232 140.524,290.282 140.524,290.282C140.7,294.375 142.893,295.213 144.407,295.299C145.063,295.336 145.714,295.196 146.342,295.001C150.619,293.675 154.025,296.026 154.025,296.026C151.905,283.292 142.217,288.374 142.217,288.374Z" style="fill-rule:nonzero;stroke-width:0.38px;"/>
            </g>
            <g transform="matrix(2.6067,0,0,2.6067,-49.8708,-487.729)">
                <path d="M125.489,211.374C125.825,212.288 126.246,213.18 126.881,213.919C128.343,215.624 131.305,217.449 136.28,213.972C136.28,213.972 133.566,210.303 128.006,206.845C128.006,206.845 132.151,206.644 137.002,210.261C137.002,210.261 134.258,194.286 117.366,203.255C117.366,203.255 123.199,205.147 125.489,211.374Z" style="fill-rule:nonzero;stroke-width:0.38px;"/>
            </g>
            <g transform="matrix(2.6067,0,0,2.6067,-49.8708,-487.729)">
                <path d="M154.926,212.091C154.803,212.833 154.745,213.593 154.889,214.332C155.22,216.034 156.511,218.39 161.179,217.955C161.179,217.955 160.758,214.456 158.345,210.011C158.345,210.011 161.205,211.458 163.081,215.739C163.081,215.739 167.337,203.966 152.571,203.539C152.571,203.539 155.766,207.036 154.926,212.091Z" style="fill-rule:nonzero;stroke-width:0.38px;"/>
            </g>
            <g transform="matrix(2.6067,0,0,2.6067,-49.8708,-487.729)">
                <path d="M105.938,261.171C106.761,260.65 107.426,259.921 108.016,259.146C112.033,253.867 118.165,253.771 118.165,253.771C104.65,240.237 97.336,254.702 97.336,254.702C103.037,252.668 106.939,254.078 106.939,254.078C100.609,255.75 96.937,258.461 96.937,258.461C100.673,263.246 104.039,262.37 105.938,261.171Z" style="fill-rule:nonzero;stroke-width:0.38px;"/>
            </g>
            <g transform="matrix(2.6067,0,0,2.6067,-49.8708,-487.729)">
                <path d="M113.987,279.382C114.834,278.901 115.646,278.34 116.272,277.594C117.714,275.872 119.032,272.653 114.79,268.312C114.79,268.312 111.612,271.588 109.109,277.638C109.109,277.638 108.234,273.582 111.011,268.205C111.011,268.205 95.697,273.52 107.304,288.721C107.304,288.721 108.218,282.658 113.987,279.382Z" style="fill-rule:nonzero;stroke-width:0.38px;"/>
            </g>
            <g transform="matrix(2.6067,0,0,2.6067,-49.8708,-487.729)">
                <path d="M124.003,282.833C111.106,282.301 114.095,292.825 114.095,292.825C115.993,289.208 118.574,288.122 118.574,288.122C116.198,291.848 115.617,294.873 115.617,294.873C119.66,295.538 120.929,293.563 121.323,292.099C121.493,291.464 121.489,290.798 121.427,290.144C121.005,285.687 124.003,282.833 124.003,282.833Z" style="fill-rule:nonzero;stroke-width:0.38px;"/>
            </g>
            <g transform="matrix(2.6067,0,0,2.6067,-49.8708,-487.729)">
                <path d="M103.897,220.149C104.512,220.905 105.2,221.613 106.04,222.106C107.977,223.243 111.37,224.008 114.947,219.104C114.947,219.104 111.189,216.514 104.808,215.049C104.808,215.049 108.662,213.513 114.425,215.36C114.425,215.36 106.644,201.141 93.578,215.108C93.578,215.108 99.709,215.004 103.897,220.149Z" style="fill-rule:nonzero;stroke-width:0.38px;"/>
            </g>
            <g transform="matrix(2.6067,0,0,2.6067,-49.8708,-487.729)">
                <path d="M115.377,240.007C115.377,240.007 118.343,238.793 122.808,240.177C122.808,240.177 116.694,229.252 106.705,240.135C106.705,240.135 111.44,240.01 114.711,243.953C115.192,244.532 115.729,245.074 116.381,245.448C117.885,246.312 120.511,246.879 123.238,243.065C123.238,243.065 120.317,241.092 115.377,240.007Z" style="fill-rule:nonzero;stroke-width:0.38px;"/>
            </g>
            <g transform="matrix(2.6067,0,0,2.6067,-49.8708,-487.729)">
                <path d="M90.842,276.651C93.961,279.308 96.068,278.271 97.16,277.221C97.634,276.765 97.974,276.192 98.259,275.6C100.198,271.563 104.239,270.668 104.239,270.668C93.466,263.555 90.595,274.112 90.595,274.112C94.087,271.993 96.859,272.395 96.859,272.395C92.901,274.36 90.842,276.651 90.842,276.651Z" style="fill-rule:nonzero;stroke-width:0.38px;"/>
            </g>
            <g transform="matrix(2.6067,0,0,2.6067,-49.8708,-487.729)">
                <path d="M69.887,262.11C70.835,262.334 71.812,262.476 72.778,262.354C75.007,262.075 78.164,260.614 78.01,254.546C78.01,254.546 73.453,254.783 67.501,257.511C67.501,257.511 69.62,253.944 75.314,251.896C75.314,251.896 60.479,245.366 58.634,264.402C58.634,264.402 63.432,260.583 69.887,262.11Z" style="fill-rule:nonzero;stroke-width:0.38px;"/>
            </g>
            <g transform="matrix(2.6067,0,0,2.6067,-49.8708,-487.729)">
                <path d="M82.453,237.093C83.223,237.69 84.053,238.224 84.983,238.515C87.127,239.184 90.605,239.163 92.981,233.577C92.981,233.577 88.735,231.904 82.188,231.919C82.188,231.919 85.595,229.552 91.627,230.047C91.627,230.047 80.832,217.956 71.262,234.516C71.262,234.516 77.211,233.028 82.453,237.093Z" style="fill-rule:nonzero;stroke-width:0.38px;"/>
            </g>
            <g transform="matrix(2.6067,0,0,2.6067,-49.8708,-487.729)">
                <path d="M75.206,380.324C75.206,380.324 70.514,376.376 70.735,369.746C70.768,368.772 70.713,367.787 70.403,366.863C69.689,364.734 67.633,361.928 61.715,363.278C61.715,363.278 62.848,367.699 66.699,372.994C66.699,372.994 62.783,371.621 59.649,366.444C59.649,366.444 56.18,382.277 75.206,380.324Z" style="fill-rule:nonzero;stroke-width:0.38px;"/>
            </g>
            <g transform="matrix(2.6067,0,0,2.6067,-49.8708,-487.729)">
                <path d="M72.423,339.786C72.139,338.854 71.77,337.938 71.178,337.165C69.815,335.38 66.963,333.388 61.797,336.576C61.797,336.576 64.297,340.394 69.651,344.163C69.651,344.163 65.502,344.127 60.865,340.239C60.865,340.239 62.693,356.345 80.069,348.354C80.069,348.354 74.354,346.132 72.423,339.786Z" style="fill-rule:nonzero;stroke-width:0.38px;"/>
            </g>
            <g transform="matrix(2.6067,0,0,2.6067,-49.8708,-487.729)">
                <path d="M80.149,322.19C79.866,321.259 79.496,320.343 78.905,319.569C77.542,317.785 74.689,315.793 69.524,318.98C69.524,318.98 72.023,322.799 77.378,326.568C77.378,326.568 73.229,326.532 68.591,322.645C68.591,322.645 70.419,338.75 87.796,330.759C87.796,330.759 82.08,328.537 80.149,322.19Z" style="fill-rule:nonzero;stroke-width:0.38px;"/>
            </g>
            <g transform="matrix(2.6067,0,0,2.6067,-49.8708,-487.729)">
                <path d="M103.211,319.621C103.211,319.621 97.495,317.399 95.564,311.052C95.28,310.12 94.911,309.205 94.319,308.431C92.956,306.646 90.105,304.655 84.939,307.842C84.939,307.842 87.438,311.661 92.793,315.43C92.793,315.43 88.643,315.394 84.006,311.506C84.006,311.506 85.834,327.612 103.211,319.621Z" style="fill-rule:nonzero;stroke-width:0.38px;"/>
            </g>
            <g transform="matrix(2.6067,0,0,2.6067,-49.8708,-487.729)">
                <path d="M120.449,312.464C120.332,311.497 120.127,310.532 119.68,309.667C118.647,307.672 116.185,305.215 110.543,307.457C110.543,307.457 112.342,311.651 116.959,316.293C116.959,316.293 112.879,315.537 108.989,310.902C108.989,310.902 107.99,327.081 126.491,322.231C126.491,322.231 121.248,319.05 120.449,312.464Z" style="fill-rule:nonzero;stroke-width:0.38px;"/>
            </g>
            <g transform="matrix(2.6067,0,0,2.6067,-49.8708,-487.729)">
                <path d="M43.969,356.562C43.969,356.562 43.268,352.472 46.272,347.219C46.272,347.219 30.746,351.874 41.691,367.558C41.691,367.558 42.864,361.539 48.768,358.513C49.635,358.069 50.47,357.543 51.127,356.824C52.642,355.166 54.096,352.006 50.043,347.487C50.043,347.487 46.729,350.625 43.969,356.562Z" style="fill-rule:nonzero;stroke-width:0.38px;"/>
            </g>
            <g transform="matrix(2.6067,0,0,2.6067,-49.8708,-487.729)">
                <path d="M45.942,336.333C46.909,336.208 47.873,335.997 48.734,335.542C50.721,334.495 53.16,332.015 50.877,326.39C50.877,326.39 46.695,328.219 42.087,332.871C42.087,332.871 42.814,328.786 47.419,324.861C47.419,324.861 31.234,323.982 36.221,342.446C36.221,342.446 39.363,337.18 45.942,336.333Z" style="fill-rule:nonzero;stroke-width:0.38px;"/>
            </g>
            <g transform="matrix(2.6067,0,0,2.6067,-49.8708,-487.729)">
                <path d="M50.316,311.12C51.283,310.995 52.247,310.784 53.108,310.329C55.095,309.282 57.534,306.802 55.251,301.177C55.251,301.177 51.069,303.006 46.461,307.658C46.461,307.658 47.188,303.573 51.793,299.647C51.793,299.647 35.608,298.769 40.595,317.233C40.595,317.233 43.737,311.967 50.316,311.12Z" style="fill-rule:nonzero;stroke-width:0.38px;"/>
            </g>
            <g transform="matrix(2.6067,0,0,2.6067,-49.8708,-487.729)">
                <path d="M52.939,291.425C53.91,291.496 54.897,291.481 55.832,291.208C57.988,290.578 60.873,288.634 59.758,282.667C59.758,282.667 55.295,283.625 49.852,287.264C49.852,287.264 51.378,283.406 56.675,280.479C56.675,280.479 40.991,276.388 42.192,295.476C42.192,295.476 46.322,290.943 52.939,291.425Z" style="fill-rule:nonzero;stroke-width:0.38px;"/>
            </g>
            <g transform="matrix(2.6067,0,0,2.6067,-49.8708,-487.729)">
                <path d="M68.384,287.879C68.561,291.973 70.753,292.811 72.267,292.896C72.923,292.933 73.574,292.793 74.202,292.598C78.479,291.272 81.885,293.624 81.885,293.624C79.766,280.89 70.077,285.971 70.077,285.971C74.005,287.087 75.597,289.392 75.597,289.392C71.464,287.829 68.384,287.879 68.384,287.879Z" style="fill-rule:nonzero;stroke-width:0.38px;"/>
            </g>
        </g>
        <g id="branches">
            <g transform="matrix(2.6067,0,0,2.6067,-49.8708,-487.729)">
                <path d="M90.107,257.808C88.959,259.315 88.878,262.248 88.875,262.372C88.871,262.543 88.974,262.698 89.133,262.76C89.182,262.778 89.231,262.787 89.28,262.787C89.396,262.787 89.507,262.738 89.586,262.647C93.129,258.58 101.649,255.22 101.735,255.186C101.921,255.113 102.026,254.917 101.984,254.722C101.942,254.528 101.773,254.393 101.566,254.403C96.402,254.674 90.499,257.567 90.25,257.69C90.194,257.718 90.145,257.758 90.107,257.808Z" style="fill-rule:nonzero;stroke-width:0.38px;"/>
            </g>
            <g transform="matrix(2.6067,0,0,2.6067,-49.8708,-487.729)">
                <path d="M254.682,262.647C254.761,262.738 254.873,262.787 254.988,262.787C255.037,262.787 255.087,262.778 255.135,262.76C255.293,262.698 255.397,262.543 255.394,262.372C255.391,262.248 255.31,259.315 254.161,257.808C254.123,257.758 254.075,257.718 254.018,257.69C253.769,257.567 247.866,254.674 242.702,254.403C242.495,254.393 242.327,254.528 242.284,254.722C242.243,254.917 242.348,255.113 242.534,255.186C242.619,255.22 251.139,258.58 254.682,262.647Z" style="fill-rule:nonzero;stroke-width:0.38px;"/>
            </g>
            <g transform="matrix(2.6067,0,0,2.6067,-49.8708,-487.729)">
                <path d="M53.923,283.295C53.406,283.738 53.022,284.16 52.741,284.435C52.464,284.714 52.306,284.873 52.306,284.873C52.306,284.873 52.505,284.768 52.853,284.583C53.203,284.404 53.683,284.123 54.298,283.858C54.896,283.567 55.617,283.28 56.383,282.992C57.159,282.721 57.989,282.47 58.821,282.269C59.659,282.085 60.491,281.932 61.27,281.861C61.837,281.794 62.355,281.782 62.837,281.781C61.252,285.592 59.958,290.088 59.243,295.342C59.195,295.359 59.153,295.374 59.097,295.392C58.657,295.553 58.064,295.803 57.396,296.142C56.736,296.494 55.985,296.914 55.248,297.44C54.499,297.948 53.759,298.553 53.052,299.174C52.355,299.81 51.705,300.477 51.127,301.121C50.562,301.78 50.055,302.397 49.659,302.957C49.241,303.494 48.949,303.984 48.728,304.309C48.512,304.638 48.389,304.826 48.389,304.826C48.389,304.826 48.563,304.683 48.867,304.433C49.175,304.188 49.588,303.815 50.138,303.433C50.667,303.029 51.315,302.604 52.008,302.168C52.714,301.749 53.478,301.337 54.253,300.973C55.038,300.626 55.823,300.31 56.572,300.085C57.314,299.841 58.019,299.699 58.608,299.586C58.683,299.574 58.739,299.57 58.811,299.559C58.564,303.111 58.57,306.96 58.92,311.146C58.934,311.313 59.049,311.454 59.21,311.501C59.248,311.513 59.286,311.518 59.325,311.518C59.448,311.518 59.567,311.462 59.646,311.361C59.689,311.305 64.063,305.693 68.337,301.951C68.457,301.847 68.504,301.684 68.46,301.532C68.429,301.426 66.736,295.373 67.845,287.525C68.201,287.498 68.565,287.479 68.939,287.475C69.517,287.48 70.101,287.519 70.652,287.578C71.2,287.651 71.717,287.73 72.155,287.83C72.6,287.91 72.958,288.022 73.216,288.086C73.473,288.155 73.62,288.194 73.62,288.194C73.62,288.194 73.491,288.113 73.267,287.972C73.04,287.834 72.723,287.615 72.315,287.403C71.916,287.17 71.432,286.934 70.9,286.688C70.364,286.455 69.778,286.228 69.171,286.033C68.831,285.931 68.486,285.838 68.143,285.755C69.205,280.205 71.737,273.957 77.197,268.344C77.273,268.266 77.315,268.159 77.312,268.049C77.311,268.028 77.252,265.904 77.77,264.07C77.814,263.912 77.759,263.743 77.631,263.642C77.503,263.54 77.327,263.525 77.183,263.604C77.061,263.672 70.093,267.681 64.733,277.76C64.714,277.762 64.701,277.764 64.681,277.766C64.218,277.836 63.587,277.962 62.865,278.162C62.147,278.375 61.328,278.637 60.501,279.004C59.665,279.353 58.819,279.798 58.003,280.265C57.193,280.75 56.422,281.274 55.728,281.789C55.043,282.322 54.423,282.826 53.923,283.295Z" style="fill-rule:nonzero;stroke-width:0.38px;"/>
            </g>
            <g transform="matrix(2.6067,0,0,2.6067,-49.8708,-487.729)">
                <path d="M281.403,278.162C280.681,277.962 280.05,277.836 279.587,277.766C279.567,277.764 279.554,277.762 279.535,277.76C274.175,267.681 267.208,263.672 267.085,263.604C266.941,263.525 266.765,263.54 266.637,263.642C266.509,263.743 266.454,263.912 266.499,264.07C267.016,265.904 266.958,268.028 266.957,268.049C266.954,268.159 266.995,268.266 267.071,268.344C272.531,273.957 275.063,280.205 276.125,285.755C275.782,285.838 275.437,285.931 275.097,286.033C274.491,286.228 273.904,286.455 273.368,286.688C272.837,286.934 272.353,287.17 271.953,287.403C271.545,287.615 271.229,287.834 271.001,287.972C270.777,288.113 270.648,288.194 270.648,288.194C270.648,288.194 270.795,288.155 271.052,288.086C271.31,288.022 271.668,287.91 272.113,287.83C272.551,287.73 273.068,287.651 273.616,287.578C274.167,287.519 274.751,287.48 275.329,287.475C275.703,287.479 276.067,287.498 276.423,287.525C277.533,295.373 275.839,301.426 275.809,301.532C275.764,301.684 275.812,301.847 275.931,301.951C280.205,305.693 284.58,311.305 284.623,311.361C284.701,311.462 284.82,311.518 284.943,311.518C284.982,311.518 285.021,311.513 285.059,311.501C285.219,311.454 285.334,311.313 285.348,311.146C285.698,306.96 285.704,303.111 285.457,299.559C285.529,299.57 285.585,299.574 285.66,299.586C286.249,299.699 286.954,299.841 287.696,300.085C288.446,300.31 289.23,300.626 290.015,300.973C290.791,301.337 291.554,301.749 292.26,302.168C292.953,302.604 293.602,303.029 294.13,303.433C294.68,303.815 295.093,304.188 295.401,304.433C295.705,304.683 295.879,304.826 295.879,304.826C295.879,304.826 295.756,304.638 295.541,304.309C295.319,303.984 295.027,303.494 294.609,302.957C294.213,302.397 293.707,301.78 293.142,301.121C292.563,300.477 291.913,299.81 291.216,299.174C290.509,298.553 289.77,297.948 289.021,297.44C288.283,296.914 287.532,296.494 286.872,296.142C286.204,295.803 285.611,295.553 285.171,295.392C285.116,295.374 285.073,295.359 285.025,295.342C284.311,290.088 283.017,285.592 281.431,281.781C281.913,281.782 282.431,281.794 282.998,281.861C283.777,281.932 284.609,282.085 285.447,282.269C286.279,282.47 287.109,282.721 287.885,282.992C288.651,283.28 289.372,283.567 289.97,283.858C290.585,284.123 291.065,284.404 291.416,284.583C291.763,284.768 291.962,284.873 291.962,284.873C291.962,284.873 291.804,284.714 291.527,284.435C291.246,284.16 290.862,283.738 290.345,283.295C289.845,282.826 289.226,282.322 288.541,281.789C287.846,281.274 287.075,280.75 286.265,280.265C285.449,279.798 284.603,279.353 283.768,279.004C282.94,278.637 282.121,278.375 281.403,278.162Z" style="fill-rule:nonzero;stroke-width:0.38px;"/>
            </g>
            <g transform="matrix(2.6067,0,0,2.6067,-49.8708,-487.729)">
                <path d="M121.935,255.684C121.809,255.603 121.648,255.598 121.517,255.671C121.269,255.81 115.384,259.221 110.34,271.742C110.262,271.935 110.343,272.155 110.527,272.252C110.587,272.284 110.652,272.299 110.716,272.299C110.848,272.299 110.977,272.234 111.054,272.118C111.114,272.027 117.102,263.053 121.924,260.16C122.057,260.08 122.133,259.932 122.12,259.777C122.118,259.76 121.967,257.927 122.12,256.059C122.132,255.909 122.061,255.765 121.935,255.684Z" style="fill-rule:nonzero;stroke-width:0.38px;"/>
            </g>
            <g transform="matrix(2.6067,0,0,2.6067,-49.8708,-487.729)">
                <path d="M222.344,260.16C227.167,263.053 233.155,272.027 233.214,272.118C233.292,272.234 233.421,272.299 233.553,272.299C233.616,272.299 233.681,272.284 233.742,272.252C233.925,272.155 234.007,271.935 233.929,271.742C228.884,259.221 223,255.81 222.751,255.671C222.621,255.598 222.459,255.603 222.334,255.684C222.208,255.765 222.136,255.909 222.149,256.059C222.302,257.927 222.15,259.76 222.149,259.777C222.136,259.932 222.212,260.08 222.344,260.16Z" style="fill-rule:nonzero;stroke-width:0.38px;"/>
            </g>
            <g transform="matrix(2.6067,0,0,2.6067,-49.8708,-487.729)">
                <path d="M133.332,253.918C133.431,253.991 133.557,254.016 133.675,253.983C138.842,252.622 143.639,251.932 147.931,251.932C161.896,251.932 166.312,259.265 166.354,259.338C166.426,259.464 166.561,259.541 166.706,259.541L166.712,259.541C166.86,259.538 166.995,259.457 167.063,259.326C167.75,258.04 171.2,254.473 171.234,254.437C171.312,254.357 171.353,254.249 171.348,254.138C171.344,254.027 171.294,253.922 171.21,253.85C165.081,248.469 157.729,245.741 149.362,245.741C140.715,245.741 134.054,248.774 133.987,248.805C133.898,248.846 133.827,248.918 133.787,249.008C133.035,250.7 133.161,253.493 133.167,253.61C133.172,253.733 133.233,253.846 133.332,253.918Z" style="fill-rule:nonzero;stroke-width:0.38px;"/>
            </g>
            <g transform="matrix(2.6067,0,0,2.6067,-49.8708,-487.729)">
                <path d="M177.205,259.326C177.274,259.457 177.409,259.538 177.556,259.541L177.563,259.541C177.708,259.541 177.842,259.464 177.915,259.338C177.958,259.265 182.372,251.932 196.338,251.932C200.63,251.932 205.426,252.622 210.593,253.983C210.712,254.016 210.838,253.991 210.937,253.918C211.036,253.846 211.096,253.733 211.102,253.61C211.108,253.493 211.233,250.7 210.482,249.008C210.442,248.918 210.371,248.846 210.281,248.805C210.215,248.774 203.554,245.741 194.907,245.741C186.539,245.741 179.188,248.469 173.058,253.85C172.975,253.922 172.925,254.027 172.92,254.138C172.916,254.249 172.957,254.357 173.034,254.437C173.069,254.473 176.52,258.04 177.205,259.326Z" style="fill-rule:nonzero;stroke-width:0.38px;"/>
            </g>
            <g transform="matrix(2.6067,0,0,2.6067,-49.8708,-487.729)">
                <path d="M156.065,286.027C153.609,282.928 143.953,271.376 133.707,267.747C133.573,267.697 133.423,267.726 133.314,267.816C133.204,267.907 133.149,268.048 133.17,268.189C133.198,268.376 133.861,272.789 134.418,274.042C134.463,274.144 134.549,274.223 134.655,274.26C134.749,274.292 144.123,277.669 151.758,288.785C153.693,291.603 154.758,294.896 154.836,298.308C154.921,302 154.567,305.3 153.782,308.119C153.741,308.265 153.785,308.42 153.896,308.524C154.012,308.633 156.781,311.205 159.617,312.302C159.664,312.321 159.713,312.33 159.763,312.33C159.839,312.33 159.914,312.309 159.979,312.268C160.088,312.199 160.158,312.083 160.168,311.956C160.171,311.91 160.547,307.351 162.578,301.877C162.608,301.796 162.611,301.707 162.587,301.623C162.536,301.445 157.656,283.73 172.134,264.475C186.613,283.73 181.733,301.445 181.681,301.623C181.657,301.707 181.661,301.796 181.69,301.877C183.721,307.351 184.098,311.91 184.101,311.956C184.111,312.083 184.181,312.199 184.289,312.268C184.354,312.309 184.43,312.33 184.505,312.33C184.555,312.33 184.604,312.321 184.651,312.302C187.487,311.205 190.256,308.633 190.373,308.524C190.483,308.42 190.527,308.265 190.486,308.119C189.701,305.3 189.347,302 189.432,298.308C189.511,294.896 190.575,291.603 192.51,288.785C200.146,277.669 209.52,274.292 209.613,274.26C209.719,274.223 209.805,274.144 209.851,274.042C210.407,272.789 211.07,268.376 211.099,268.189C211.119,268.048 211.064,267.907 210.955,267.816C210.845,267.726 210.696,267.697 210.562,267.747C200.316,271.376 190.659,282.928 188.204,286.027C185.393,266.672 172.523,255.292 172.391,255.178C172.387,255.174 172.381,255.175 172.377,255.171C172.354,255.154 172.339,255.127 172.312,255.115C172.285,255.103 172.255,255.109 172.227,255.103C172.195,255.095 172.167,255.09 172.134,255.09C172.102,255.09 172.073,255.095 172.042,255.103C172.013,255.109 171.984,255.103 171.957,255.115C171.929,255.127 171.915,255.154 171.892,255.171C171.887,255.175 171.881,255.174 171.877,255.178C171.746,255.292 158.876,266.672 156.065,286.027Z" style="fill-rule:nonzero;stroke-width:0.38px;"/>
            </g>
            <g transform="matrix(2.6067,0,0,2.6067,-49.8708,-487.729)">
                <path d="M139.354,235.708C139.372,235.683 139.852,235.05 140.784,234.116C140.994,234.2 141.215,234.262 141.452,234.278C141.634,234.29 141.812,234.279 141.982,234.248L142.04,234.237C142.034,234.238 142.118,234.223 142.149,234.208C142.177,234.189 142.314,234.168 142.46,234.138C142.775,234.087 143.254,234.032 143.854,234.01C144.454,234.002 145.173,234 145.949,234.092C146.729,234.163 147.561,234.316 148.398,234.5C149.231,234.701 150.061,234.952 150.836,235.223C151.603,235.511 152.323,235.798 152.921,236.089C153.537,236.354 154.016,236.636 154.367,236.814C154.715,236.999 154.914,237.104 154.914,237.104C154.914,237.104 154.755,236.945 154.479,236.666C154.197,236.391 153.813,235.969 153.296,235.526C152.797,235.057 152.177,234.553 151.492,234.02C150.797,233.505 150.026,232.98 149.217,232.496C148.4,232.029 147.555,231.584 146.719,231.235C146.155,230.985 145.609,230.794 145.083,230.625C149.071,227.964 155.17,225.255 163.526,225.255C166.259,225.255 169.117,225.548 172.021,226.122C172.027,226.124 172.034,226.124 172.04,226.125C172.048,226.126 172.056,226.128 172.064,226.129C172.087,226.134 172.111,226.127 172.134,226.127C172.158,226.127 172.181,226.134 172.204,226.129C172.212,226.128 172.22,226.126 172.229,226.125C172.235,226.124 172.241,226.124 172.248,226.122C175.151,225.548 178.009,225.255 180.742,225.255C189.099,225.255 195.198,227.964 199.186,230.625C198.66,230.794 198.113,230.985 197.549,231.235C196.714,231.584 195.869,232.029 195.052,232.496C194.242,232.98 193.472,233.505 192.776,234.02C192.092,234.553 191.472,235.057 190.972,235.526C190.456,235.969 190.071,236.391 189.79,236.666C189.513,236.945 189.355,237.104 189.355,237.104C189.355,237.104 189.554,236.999 189.902,236.814C190.252,236.636 190.732,236.354 191.347,236.089C191.945,235.798 192.666,235.511 193.432,235.223C194.208,234.952 195.038,234.701 195.87,234.5C196.708,234.316 197.54,234.163 198.319,234.092C199.095,234 199.814,234.002 200.414,234.01C201.014,234.032 201.493,234.087 201.808,234.138C201.954,234.168 202.092,234.189 202.12,234.208C202.151,234.223 202.234,234.238 202.229,234.237L202.286,234.248C202.457,234.279 202.635,234.29 202.816,234.278C203.054,234.262 203.275,234.2 203.484,234.116C204.417,235.05 204.896,235.683 204.915,235.708C210.079,241.543 211.959,249.366 212.26,256.998C212.227,256.999 212.197,256.999 212.164,257C211.417,257.046 210.56,257.116 209.67,257.287C208.778,257.438 207.854,257.681 206.953,257.951C206.054,258.24 205.185,258.577 204.392,258.922C203.604,259.287 202.887,259.637 202.294,259.981C201.69,260.296 201.221,260.62 200.885,260.824C200.552,261.034 200.362,261.153 200.362,261.153C200.362,261.153 200.58,261.096 200.96,260.994C201.342,260.899 201.873,260.733 202.532,260.614C203.18,260.466 203.947,260.349 204.758,260.241C205.575,260.153 206.441,260.096 207.297,260.087C208.155,260.098 209,260.137 209.775,260.244C210.552,260.33 211.252,260.494 211.834,260.637C212.004,260.683 212.14,260.728 212.288,260.774C211.998,272.815 208.35,283.432 208.285,283.615C207.903,285.068 207.466,286.455 206.99,287.787C206.825,287.787 206.661,287.786 206.475,287.793C205.97,287.824 205.392,287.872 204.792,287.987C204.189,288.089 203.565,288.253 202.957,288.436C202.351,288.63 201.765,288.857 201.229,289.091C200.697,289.337 200.213,289.573 199.813,289.805C199.406,290.018 199.089,290.237 198.862,290.375C198.637,290.516 198.509,290.597 198.509,290.597C198.509,290.597 198.656,290.558 198.913,290.489C199.17,290.425 199.529,290.313 199.974,290.233C200.412,290.133 200.929,290.054 201.477,289.981C202.028,289.921 202.612,289.883 203.19,289.877C203.769,289.884 204.339,289.911 204.862,289.983C205.305,290.032 205.7,290.119 206.052,290.203C199.24,306.494 186.058,312.989 183.426,314.146C180.862,298.497 176.433,290.176 176.388,290.093C176.316,289.961 176.18,289.88 176.031,289.88L176.027,289.88C175.876,289.882 175.739,289.966 175.67,290.1L172.134,296.956L168.599,290.1C168.53,289.966 168.392,289.882 168.242,289.88L168.238,289.88C168.089,289.88 167.952,289.961 167.881,290.093C167.836,290.176 163.407,298.497 160.843,314.146C158.211,312.989 145.028,306.494 138.217,290.203C138.569,290.119 138.963,290.032 139.406,289.983C139.929,289.911 140.5,289.884 141.079,289.877C141.657,289.883 142.241,289.921 142.792,289.981C143.34,290.054 143.857,290.133 144.295,290.233C144.74,290.313 145.098,290.425 145.355,290.489C145.613,290.558 145.759,290.597 145.759,290.597C145.759,290.597 145.631,290.516 145.407,290.375C145.18,290.237 144.863,290.018 144.456,289.805C144.056,289.573 143.571,289.337 143.04,289.091C142.504,288.857 141.917,288.63 141.312,288.436C140.703,288.253 140.08,288.089 139.477,287.987C138.876,287.872 138.298,287.824 137.794,287.793C137.607,287.786 137.443,287.787 137.278,287.787C136.803,286.455 136.366,285.068 135.983,283.615C135.919,283.432 132.271,272.815 131.981,260.774C132.129,260.728 132.264,260.683 132.435,260.637C133.017,260.494 133.717,260.33 134.494,260.244C135.269,260.137 136.114,260.098 136.972,260.087C137.828,260.096 138.693,260.153 139.51,260.241C140.322,260.349 141.088,260.466 141.737,260.614C142.396,260.733 142.927,260.899 143.309,260.994C143.689,261.096 143.907,261.153 143.907,261.153C143.907,261.153 143.716,261.034 143.384,260.824C143.047,260.62 142.578,260.296 141.975,259.981C141.382,259.637 140.665,259.287 139.877,258.922C139.083,258.577 138.214,258.24 137.316,257.951C136.415,257.681 135.491,257.438 134.599,257.287C133.708,257.116 132.852,257.046 132.105,257C132.071,256.999 132.042,256.999 132.008,256.998C132.309,249.366 134.19,241.543 139.354,235.708ZM172.134,320.075C171.126,318.566 168.166,312.636 172.134,299.276C176.103,312.636 173.142,318.566 172.134,320.075ZM90.112,230.614C89.246,230.679 88.451,230.755 87.775,230.869C87.1,230.951 86.546,231.09 86.16,231.163C85.775,231.242 85.555,231.287 85.555,231.287C85.555,231.287 85.779,231.31 86.171,231.349C86.562,231.394 87.117,231.424 87.776,231.545C88.435,231.634 89.194,231.794 89.992,231.978C90.788,232.182 91.618,232.433 92.422,232.726C93.222,233.038 93.999,233.371 94.687,233.743C94.965,233.884 95.214,234.034 95.46,234.183C92.984,236.499 90.705,239.004 88.662,241.69C86.657,244.324 84.72,247.276 83.066,250.499C82.694,250.511 82.268,250.539 81.793,250.591C81.051,250.688 80.201,250.815 79.325,251.047C78.445,251.259 77.54,251.564 76.659,251.896C75.783,252.245 74.939,252.64 74.171,253.039C73.41,253.457 72.718,253.855 72.15,254.239C71.57,254.594 71.124,254.95 70.802,255.176C70.484,255.408 70.303,255.541 70.303,255.541C70.303,255.541 70.516,255.468 70.889,255.341C71.263,255.22 71.782,255.018 72.431,254.854C73.068,254.662 73.825,254.493 74.627,254.33C75.436,254.186 76.295,254.07 77.149,254.003C78.006,253.955 78.851,253.936 79.632,253.99C80.272,254.017 80.846,254.101 81.364,254.187C76.792,265.239 76.028,278.953 86.452,293.8C82.813,294.614 64.314,299.716 56.152,320.304C55.935,320.296 55.714,320.309 55.493,320.37C55.493,320.37 55.422,320.389 55.29,320.425C55.114,320.468 54.955,320.527 54.723,320.605C54.283,320.766 53.69,321.016 53.022,321.355C52.362,321.707 51.611,322.127 50.874,322.653C50.125,323.161 49.385,323.766 48.678,324.387C47.981,325.022 47.331,325.69 46.752,326.334C46.188,326.993 45.681,327.61 45.285,328.169C44.867,328.707 44.575,329.197 44.354,329.522C44.138,329.851 44.015,330.039 44.015,330.039C44.015,330.039 44.189,329.896 44.493,329.646C44.801,329.4 45.214,329.028 45.764,328.646C46.293,328.242 46.941,327.817 47.634,327.381C48.34,326.961 49.104,326.549 49.879,326.186C50.664,325.839 51.448,325.523 52.198,325.298C52.94,325.054 53.645,324.912 54.234,324.799C54.381,324.775 54.499,324.763 54.631,324.746C54.215,326.176 53.837,327.661 53.522,329.223C53.497,329.322 52.382,333.806 52.413,340.223C52.392,340.236 52.369,340.245 52.348,340.259C52.348,340.259 52.288,340.301 52.176,340.38C52.025,340.48 51.895,340.589 51.703,340.742C51.344,341.042 50.87,341.478 50.357,342.023C49.855,342.578 49.291,343.227 48.775,343.972C48.242,344.704 47.751,345.523 47.296,346.347C46.856,347.181 46.47,348.029 46.144,348.831C45.836,349.643 45.568,350.395 45.385,351.055C45.173,351.702 45.064,352.262 44.967,352.643C44.875,353.025 44.823,353.244 44.823,353.244C44.823,353.244 44.938,353.051 45.14,352.712C45.346,352.377 45.609,351.887 45.997,351.341C46.357,350.782 46.824,350.163 47.329,349.518C47.851,348.883 48.429,348.238 49.036,347.633C49.657,347.041 50.288,346.478 50.917,346.012C51.523,345.538 52.128,345.171 52.64,344.868C53.313,352.094 55.662,360.72 61.989,368.265C62.068,368.359 62.184,368.409 62.3,368.409L62.311,368.409C62.532,368.432 62.726,368.231 62.726,368.003C62.726,367.908 62.693,367.82 62.638,367.751C62.131,366.403 57.071,352.421 58.616,337.685C59.116,338.164 59.642,338.633 60.188,339.078C60.931,339.658 61.698,340.189 62.429,340.652C63.173,341.099 63.866,341.496 64.483,341.793C65.082,342.116 65.614,342.322 65.972,342.486C66.332,342.644 66.538,342.734 66.538,342.734C66.538,342.734 66.368,342.586 66.07,342.328C65.777,342.066 65.341,341.72 64.873,341.241C64.386,340.788 63.859,340.219 63.314,339.607C62.783,338.981 62.25,338.297 61.762,337.593C61.29,336.877 60.847,336.156 60.501,335.455C60.136,334.763 59.879,334.092 59.67,333.53C59.559,333.207 59.478,332.929 59.411,332.682C60.435,327.933 62.272,323.248 65.3,319.017C65.476,319.214 65.645,319.411 65.839,319.606C66.465,320.26 67.185,320.889 67.915,321.482C68.658,322.063 69.424,322.594 70.155,323.057C70.899,323.504 71.592,323.901 72.209,324.198C72.809,324.521 73.34,324.727 73.698,324.891C74.058,325.049 74.264,325.139 74.264,325.139C74.264,325.139 74.094,324.991 73.796,324.733C73.503,324.471 73.068,324.125 72.6,323.646C72.113,323.192 71.586,322.624 71.041,322.013C70.509,321.386 69.976,320.702 69.489,319.998C69.016,319.282 68.574,318.561 68.227,317.859C67.9,317.239 67.667,316.646 67.47,316.123C69.681,313.503 73.71,309.492 79.574,306.504C79.59,306.525 79.601,306.543 79.616,306.565C80.073,307.158 80.612,307.828 81.254,308.467C81.88,309.122 82.599,309.75 83.329,310.344C84.072,310.925 84.838,311.456 85.57,311.918C86.314,312.366 87.007,312.763 87.624,313.06C88.223,313.383 88.755,313.589 89.112,313.753C89.473,313.911 89.678,314 89.678,314C89.678,314 89.508,313.853 89.211,313.595C88.918,313.332 88.482,312.986 88.014,312.508C87.527,312.054 87.001,311.485 86.456,310.874C85.924,310.248 85.391,309.564 84.903,308.859C84.43,308.144 83.988,307.423 83.642,306.721C83.32,306.111 83.09,305.529 82.895,305.012C86.709,303.526 91.15,302.539 96.229,302.539C97.176,302.539 98.144,302.574 99.107,302.642C99.992,302.704 100.86,302.761 101.746,302.77C102.459,302.777 103.423,302.802 104.575,302.862C104.584,302.896 104.596,302.939 104.611,302.999C104.653,303.175 104.711,303.334 104.788,303.567C104.945,304.008 105.19,304.604 105.525,305.274C105.872,305.937 106.286,306.69 106.807,307.432C107.309,308.185 107.909,308.929 108.524,309.641C109.155,310.342 109.817,310.997 110.457,311.58C111.112,312.15 111.725,312.661 112.281,313.062C112.815,313.483 113.303,313.779 113.627,314.002C113.955,314.22 114.141,314.345 114.141,314.345C114.141,314.345 114,314.17 113.751,313.864C113.509,313.555 113.14,313.138 112.762,312.585C112.361,312.054 111.941,311.402 111.511,310.706C111.096,309.997 110.69,309.23 110.333,308.452C109.991,307.665 109.681,306.878 109.461,306.127C109.223,305.383 109.086,304.677 108.978,304.087C108.924,303.745 108.892,303.454 108.87,303.195C113.212,303.642 118.805,304.54 124.746,306.347C142.295,311.683 155.395,326.243 158.933,344.345C159.064,345.016 159.179,345.667 159.271,346.29C159.295,346.445 159.406,346.573 159.556,346.618C159.706,346.666 159.87,346.62 159.974,346.502C160.048,346.42 167.335,338.402 172.134,336.184C176.934,338.402 184.221,346.42 184.294,346.502C184.399,346.62 184.563,346.666 184.713,346.618C184.863,346.573 184.974,346.445 184.997,346.29C185.09,345.667 185.205,345.016 185.336,344.345C188.874,326.243 201.974,311.683 219.522,306.347C225.463,304.54 231.057,303.642 235.399,303.195C235.376,303.454 235.345,303.745 235.291,304.087C235.183,304.677 235.046,305.383 234.807,306.127C234.588,306.878 234.278,307.665 233.936,308.452C233.579,309.23 233.173,309.997 232.758,310.706C232.327,311.402 231.907,312.054 231.507,312.585C231.129,313.138 230.76,313.555 230.517,313.864C230.269,314.17 230.127,314.345 230.127,314.345C230.127,314.345 230.314,314.22 230.642,314.002C230.965,313.779 231.453,313.483 231.987,313.062C232.543,312.661 233.157,312.15 233.812,311.58C234.451,310.997 235.114,310.342 235.745,309.641C236.36,308.929 236.959,308.185 237.462,307.432C237.982,306.69 238.397,305.937 238.744,305.274C239.079,304.604 239.324,304.008 239.481,303.567C239.558,303.334 239.615,303.175 239.657,302.999C239.673,302.939 239.685,302.896 239.693,302.862C240.846,302.802 241.809,302.777 242.523,302.77C243.409,302.761 244.276,302.704 245.161,302.642C246.124,302.574 247.092,302.539 248.039,302.539C253.118,302.539 257.56,303.526 261.372,305.012C261.178,305.529 260.948,306.111 260.626,306.721C260.28,307.423 259.838,308.144 259.364,308.859C258.877,309.564 258.344,310.248 257.812,310.874C257.268,311.485 256.741,312.054 256.254,312.508C255.786,312.986 255.35,313.332 255.057,313.595C254.76,313.853 254.59,314 254.59,314C254.59,314 254.795,313.911 255.155,313.753C255.513,313.589 256.045,313.383 256.644,313.06C257.262,312.763 257.954,312.366 258.698,311.918C259.43,311.456 260.196,310.925 260.939,310.344C261.669,309.75 262.388,309.122 263.014,308.467C263.656,307.828 264.195,307.158 264.652,306.565C264.667,306.543 264.678,306.525 264.694,306.504C270.559,309.492 274.587,313.503 276.798,316.123C276.602,316.646 276.368,317.239 276.041,317.859C275.694,318.561 275.252,319.282 274.779,319.998C274.292,320.702 273.759,321.386 273.227,322.013C272.682,322.624 272.155,323.192 271.668,323.646C271.2,324.125 270.765,324.471 270.472,324.733C270.174,324.991 270.004,325.139 270.004,325.139C270.004,325.139 270.21,325.049 270.57,324.891C270.928,324.727 271.459,324.521 272.059,324.198C272.676,323.901 273.369,323.504 274.113,323.057C274.844,322.594 275.611,322.063 276.354,321.482C277.083,320.889 277.803,320.26 278.429,319.606C278.624,319.411 278.792,319.214 278.968,319.017C281.996,323.248 283.833,327.933 284.857,332.682C284.791,332.929 284.709,333.207 284.598,333.53C284.389,334.092 284.132,334.763 283.767,335.455C283.421,336.156 282.979,336.877 282.506,337.593C282.018,338.297 281.485,338.981 280.954,339.607C280.409,340.219 279.882,340.788 279.395,341.241C278.927,341.72 278.491,342.066 278.198,342.328C277.9,342.586 277.73,342.734 277.73,342.734C277.73,342.734 277.937,342.644 278.296,342.486C278.654,342.322 279.186,342.116 279.785,341.793C280.402,341.496 281.095,341.099 281.839,340.652C282.57,340.189 283.337,339.658 284.08,339.078C284.626,338.633 285.152,338.164 285.652,337.685C287.197,352.421 282.137,366.403 281.63,367.751C281.575,367.82 281.542,367.908 281.542,368.003C281.542,368.231 281.736,368.432 281.958,368.409L281.968,368.409C282.084,368.409 282.2,368.359 282.279,368.265C288.606,360.72 290.956,352.094 291.628,344.868C292.14,345.171 292.745,345.538 293.351,346.012C293.98,346.478 294.611,347.041 295.232,347.633C295.839,348.238 296.417,348.883 296.939,349.518C297.444,350.163 297.911,350.782 298.271,351.341C298.659,351.887 298.922,352.377 299.129,352.712C299.33,353.051 299.445,353.244 299.445,353.244C299.445,353.244 299.393,353.025 299.301,352.643C299.204,352.262 299.095,351.702 298.883,351.055C298.7,350.395 298.433,349.643 298.124,348.831C297.798,348.029 297.412,347.181 296.972,346.347C296.517,345.523 296.026,344.704 295.493,343.972C294.977,343.227 294.413,342.578 293.911,342.023C293.398,341.478 292.924,341.042 292.565,340.742C292.373,340.589 292.243,340.48 292.092,340.38C291.98,340.301 291.92,340.259 291.92,340.259C291.899,340.245 291.876,340.236 291.855,340.223C291.886,333.806 290.771,329.322 290.746,329.223C290.43,327.661 290.053,326.176 289.637,324.746C289.77,324.763 289.887,324.775 290.034,324.799C290.623,324.912 291.328,325.054 292.07,325.298C292.82,325.523 293.604,325.839 294.389,326.186C295.165,326.549 295.928,326.961 296.634,327.381C297.327,327.817 297.976,328.242 298.504,328.646C299.054,329.028 299.467,329.4 299.775,329.646C300.08,329.896 300.253,330.039 300.253,330.039C300.253,330.039 300.13,329.851 299.915,329.522C299.693,329.197 299.401,328.707 298.983,328.169C298.587,327.61 298.081,326.993 297.516,326.334C296.938,325.69 296.287,325.022 295.59,324.387C294.883,323.766 294.144,323.161 293.395,322.653C292.657,322.127 291.906,321.707 291.246,321.355C290.579,321.016 289.985,320.766 289.545,320.605C289.313,320.527 289.154,320.468 288.979,320.425C288.846,320.389 288.775,320.37 288.775,320.37C288.554,320.309 288.333,320.296 288.116,320.304C279.954,299.716 261.456,294.614 257.816,293.8C268.24,278.953 267.476,265.239 262.904,254.187C263.422,254.101 263.996,254.017 264.636,253.99C265.417,253.936 266.262,253.955 267.119,254.003C267.973,254.07 268.832,254.186 269.641,254.33C270.443,254.493 271.2,254.662 271.837,254.854C272.486,255.018 273.005,255.22 273.379,255.341C273.752,255.468 273.965,255.541 273.965,255.541C273.965,255.541 273.784,255.408 273.466,255.176C273.145,254.95 272.698,254.594 272.118,254.239C271.55,253.855 270.858,253.457 270.097,253.039C269.329,252.64 268.485,252.245 267.609,251.896C266.729,251.564 265.823,251.259 264.943,251.047C264.067,250.815 263.217,250.688 262.475,250.591C262,250.539 261.574,250.511 261.2,250.499C259.548,247.276 257.611,244.324 255.606,241.69C253.563,239.004 251.284,236.499 248.808,234.183C249.054,234.034 249.303,233.884 249.581,233.743C250.269,233.371 251.046,233.038 251.846,232.726C252.65,232.433 253.48,232.182 254.276,231.978C255.074,231.794 255.833,231.634 256.492,231.545C257.151,231.424 257.707,231.394 258.096,231.349C258.489,231.31 258.713,231.287 258.713,231.287C258.713,231.287 258.493,231.242 258.108,231.163C257.721,231.09 257.168,230.951 256.493,230.869C255.817,230.755 255.022,230.679 254.156,230.614C253.292,230.57 252.36,230.56 251.418,230.605C250.479,230.668 249.529,230.766 248.64,230.938C247.747,231.09 246.92,231.326 246.205,231.546C246.104,231.579 246.012,231.612 245.917,231.645C240.627,227.282 234.56,223.732 227.92,221.169C227.483,221 227.043,220.854 226.605,220.694C226.927,220.356 227.278,220.004 227.697,219.652C228.283,219.133 228.965,218.633 229.674,218.149C230.391,217.682 231.143,217.25 231.872,216.871C232.608,216.511 233.311,216.184 233.933,215.948C234.547,215.682 235.082,215.526 235.452,215.394C235.825,215.267 236.038,215.195 236.038,215.195C236.038,215.195 235.813,215.201 235.42,215.21C235.027,215.227 234.457,215.217 233.78,215.289C233.096,215.331 232.305,215.437 231.447,215.569C230.595,215.721 229.685,215.923 228.777,216.18C227.877,216.454 226.974,216.764 226.147,217.132C225.311,217.482 224.559,217.899 223.912,218.274C223.284,218.655 222.771,219.019 222.405,219.306C216.874,217.688 211.299,216.837 205.758,216.745C205.987,216.226 206.26,215.632 206.63,215.018C207.016,214.337 207.499,213.642 208.011,212.955C208.538,212.279 209.109,211.627 209.676,211.032C210.255,210.453 210.813,209.915 211.325,209.49C211.82,209.039 212.275,208.718 212.582,208.473C212.894,208.232 213.072,208.094 213.072,208.094C213.072,208.094 212.861,208.172 212.493,208.31C212.126,208.453 211.584,208.628 210.967,208.917C210.334,209.178 209.62,209.535 208.851,209.939C208.095,210.359 207.299,210.845 206.524,211.383C205.762,211.934 205.008,212.521 204.345,213.138C203.668,213.74 203.092,214.378 202.602,214.944C202.123,215.52 201.747,216.042 201.493,216.435C201.396,216.593 201.322,216.713 201.256,216.832C192.77,217.352 187.502,219.586 187.443,219.611C187.271,219.687 187.172,219.87 187.205,220.056C187.239,220.241 187.396,220.379 187.583,220.389C190.737,220.553 193.908,221.553 193.939,221.563C193.993,221.581 194.053,221.586 194.109,221.58C196.746,221.276 199.364,221.123 201.893,221.123C242.351,221.123 255.756,260.354 255.888,260.75C256.95,266.471 256.986,271.569 256.017,276.014C255.949,275.961 255.89,275.908 255.82,275.856C255.335,275.484 254.791,275.139 254.243,274.817C253.688,274.506 253.123,274.23 252.587,273.997C252.045,273.775 251.542,273.581 251.1,273.446C250.667,273.292 250.291,273.209 250.036,273.137C249.779,273.068 249.633,273.029 249.633,273.029C249.633,273.029 249.761,273.11 249.986,273.252C250.208,273.397 250.535,273.583 250.896,273.854C251.268,274.107 251.677,274.433 252.104,274.784C252.522,275.147 252.948,275.549 253.345,275.969C253.734,276.398 254.103,276.833 254.406,277.266C254.72,277.69 254.961,278.111 255.158,278.465C255.205,278.555 255.237,278.628 255.277,278.709C254.365,281.439 253.028,283.887 251.248,286.03C246.264,292.028 238.527,294.86 231.377,296.149C231.298,295.912 231.214,295.672 231.112,295.428C230.889,294.859 230.601,294.282 230.298,293.724C229.983,293.17 229.641,292.643 229.303,292.167C228.953,291.696 228.622,291.271 228.313,290.927C228.022,290.572 227.743,290.307 227.562,290.112C227.377,289.921 227.272,289.813 227.272,289.813C227.272,289.813 227.34,289.948 227.459,290.186C227.575,290.425 227.758,290.752 227.928,291.171C228.116,291.58 228.298,292.07 228.482,292.591C228.653,293.119 228.811,293.682 228.934,294.247C229.046,294.815 229.137,295.378 229.173,295.905C229.193,296.112 229.198,296.307 229.202,296.499C225.628,297.004 222.295,297.151 219.651,297.151C216.296,297.151 213.709,296.925 212.583,296.807C219.764,284.565 221.438,270.457 221.568,260.713C221.645,254.955 220.698,249.388 218.835,244.361C219.106,244.078 219.407,243.776 219.772,243.476C220.228,243.08 220.758,242.698 221.309,242.33C221.867,241.974 222.451,241.646 223.017,241.359C223.587,241.086 224.133,240.838 224.615,240.661C225.091,240.46 225.505,240.344 225.792,240.244C226.081,240.149 226.246,240.095 226.246,240.095C226.246,240.095 226.073,240.098 225.769,240.103C225.465,240.112 225.025,240.1 224.502,240.151C223.973,240.179 223.361,240.254 222.698,240.351C222.039,240.461 221.334,240.61 220.631,240.802C219.934,241.007 219.234,241.24 218.593,241.519C218.32,241.63 218.065,241.753 217.816,241.876C217.586,241.364 217.36,240.848 217.11,240.35C208.958,224.168 194.349,220.771 183.529,220.771C183.235,220.771 182.948,220.776 182.66,220.781C182.612,220.323 182.561,219.775 182.576,219.176C182.576,218.571 182.634,217.921 182.716,217.263C182.812,216.609 182.946,215.953 183.1,215.337C183.268,214.727 183.437,214.153 183.618,213.672C183.778,213.18 183.961,212.791 184.074,212.509C184.191,212.229 184.258,212.068 184.258,212.068C184.258,212.068 184.147,212.201 183.952,212.434C183.76,212.669 183.463,212.995 183.159,213.423C182.833,213.841 182.49,214.353 182.128,214.918C181.781,215.489 181.433,216.119 181.118,216.776C180.816,217.437 180.534,218.119 180.325,218.786C180.1,219.449 179.957,220.097 179.844,220.664C179.828,220.752 179.821,220.824 179.807,220.909C175.65,221.21 172.716,221.916 172.134,222.064C171.552,221.916 168.619,221.21 164.461,220.909C164.448,220.824 164.441,220.752 164.425,220.664C164.312,220.097 164.168,219.449 163.944,218.786C163.735,218.119 163.452,217.437 163.151,216.776C162.836,216.119 162.487,215.489 162.14,214.918C161.778,214.353 161.435,213.841 161.11,213.423C160.806,212.995 160.508,212.669 160.317,212.434C160.122,212.201 160.01,212.068 160.01,212.068C160.01,212.068 160.077,212.229 160.195,212.509C160.307,212.791 160.49,213.18 160.65,213.672C160.832,214.153 161.001,214.727 161.169,215.337C161.322,215.953 161.457,216.609 161.552,217.263C161.634,217.921 161.693,218.571 161.692,219.176C161.708,219.775 161.657,220.323 161.608,220.781C161.321,220.776 161.034,220.771 160.739,220.771C149.919,220.771 135.311,224.168 127.159,240.35C126.908,240.848 126.683,241.364 126.452,241.876C126.204,241.753 125.949,241.63 125.676,241.519C125.035,241.24 124.334,241.007 123.637,240.802C122.934,240.61 122.23,240.461 121.571,240.351C120.907,240.254 120.295,240.179 119.767,240.151C119.244,240.1 118.803,240.112 118.5,240.103C118.196,240.098 118.022,240.095 118.022,240.095C118.022,240.095 118.188,240.149 118.477,240.244C118.764,240.344 119.177,240.46 119.654,240.661C120.136,240.838 120.681,241.086 121.252,241.359C121.818,241.646 122.402,241.974 122.959,242.33C123.51,242.698 124.041,243.08 124.497,243.476C124.861,243.776 125.162,244.078 125.433,244.361C123.571,249.388 122.624,254.955 122.701,260.713C122.831,270.457 124.504,284.565 131.685,296.807C130.56,296.925 127.973,297.151 124.617,297.151C121.974,297.151 118.64,297.004 115.066,296.499C115.071,296.307 115.075,296.112 115.095,295.905C115.132,295.378 115.223,294.815 115.334,294.247C115.458,293.682 115.615,293.119 115.787,292.591C115.97,292.07 116.153,291.58 116.341,291.171C116.51,290.752 116.693,290.425 116.809,290.186C116.929,289.948 116.997,289.813 116.997,289.813C116.997,289.813 116.892,289.921 116.707,290.112C116.526,290.307 116.247,290.572 115.955,290.927C115.646,291.271 115.315,291.696 114.966,292.167C114.628,292.643 114.286,293.17 113.971,293.724C113.667,294.282 113.379,294.859 113.157,295.428C113.054,295.672 112.971,295.912 112.892,296.149C105.741,294.86 98.004,292.028 93.021,286.03C91.24,283.887 89.903,281.439 88.991,278.709C89.031,278.628 89.063,278.555 89.11,278.465C89.307,278.111 89.548,277.69 89.862,277.266C90.165,276.833 90.534,276.398 90.923,275.969C91.32,275.549 91.746,275.147 92.165,274.784C92.591,274.433 93.001,274.107 93.372,273.854C93.733,273.583 94.06,273.397 94.282,273.252C94.507,273.11 94.635,273.029 94.635,273.029C94.635,273.029 94.489,273.068 94.232,273.137C93.977,273.209 93.601,273.292 93.168,273.446C92.726,273.581 92.223,273.775 91.681,273.997C91.146,274.23 90.58,274.506 90.025,274.817C89.477,275.139 88.933,275.484 88.448,275.856C88.378,275.908 88.319,275.962 88.252,276.014C87.282,271.569 87.317,266.471 88.38,260.75C88.512,260.354 101.917,221.123 142.375,221.123C144.904,221.123 147.523,221.276 150.16,221.58C150.216,221.586 150.275,221.581 150.329,221.563C150.361,221.553 153.532,220.553 156.685,220.389C156.873,220.379 157.03,220.241 157.063,220.056C157.097,219.87 156.998,219.687 156.825,219.611C156.766,219.586 151.499,217.352 143.013,216.832C142.946,216.713 142.873,216.593 142.776,216.435C142.521,216.042 142.146,215.52 141.667,214.944C141.176,214.378 140.6,213.74 139.923,213.138C139.261,212.521 138.507,211.934 137.744,211.383C136.969,210.845 136.174,210.359 135.417,209.939C134.649,209.535 133.935,209.178 133.302,208.917C132.685,208.628 132.142,208.453 131.775,208.31C131.407,208.172 131.197,208.094 131.197,208.094C131.197,208.094 131.375,208.232 131.687,208.473C131.994,208.718 132.449,209.039 132.943,209.49C133.455,209.915 134.014,210.453 134.593,211.032C135.159,211.627 135.73,212.279 136.257,212.955C136.77,213.642 137.253,214.337 137.639,215.018C138.009,215.632 138.281,216.226 138.511,216.745C132.969,216.837 127.395,217.688 121.864,219.306C121.497,219.019 120.984,218.655 120.357,218.274C119.71,217.899 118.958,217.482 118.122,217.132C117.295,216.764 116.391,216.454 115.491,216.18C114.583,215.923 113.673,215.721 112.822,215.569C111.964,215.437 111.172,215.331 110.488,215.289C109.812,215.217 109.241,215.227 108.848,215.21C108.455,215.201 108.23,215.195 108.23,215.195C108.23,215.195 108.444,215.267 108.817,215.394C109.187,215.526 109.721,215.682 110.336,215.948C110.958,216.184 111.661,216.511 112.396,216.871C113.125,217.25 113.877,217.682 114.595,218.149C115.303,218.633 115.985,219.133 116.571,219.652C116.991,220.004 117.342,220.356 117.664,220.694C117.225,220.854 116.786,221 116.348,221.169C109.708,223.732 103.642,227.282 98.352,231.645C98.256,231.612 98.164,231.579 98.064,231.546C97.348,231.326 96.521,231.09 95.628,230.938C94.739,230.766 93.789,230.668 92.85,230.605C91.908,230.56 90.976,230.57 90.112,230.614Z" style="fill-rule:nonzero;stroke-width:0.38px;"/>
            </g>
        </g>
        <g id="top_roots">
            <g transform="matrix(2.6067,0,0,2.6067,-49.8708,-487.729)">
                <path d="M172.373,337.746C172.362,337.738 172.357,337.726 172.345,337.719C172.28,337.682 172.208,337.666 172.134,337.667C172.062,337.666 171.988,337.682 171.923,337.719C171.912,337.726 171.907,337.738 171.896,337.746C171.014,338.273 150.678,350.658 156.867,364.741C156.917,364.853 157.013,364.936 157.13,364.969C157.166,364.979 157.202,364.983 157.239,364.983C157.322,364.983 157.404,364.958 157.473,364.909L164.353,360.041C164.515,359.925 164.569,359.708 164.481,359.528C164.452,359.468 161.648,353.409 172.134,345.882C182.62,353.409 179.817,359.468 179.787,359.528C179.7,359.708 179.753,359.925 179.916,360.041L186.795,364.909C186.865,364.958 186.947,364.983 187.03,364.983C187.066,364.983 187.103,364.979 187.138,364.969C187.255,364.936 187.352,364.853 187.401,364.741C193.591,350.658 173.254,338.273 172.373,337.746Z" style="fill-rule:nonzero;stroke-width:0.38px;"/>
            </g>
            <g transform="matrix(2.6067,0,0,2.6067,-49.8708,-487.729)">
                <path d="M171.864,364.301C171.9,364.334 171.932,364.375 171.98,364.393C172.027,364.411 172.076,364.42 172.125,364.42C172.128,364.42 172.131,364.418 172.134,364.418C172.138,364.418 172.141,364.42 172.144,364.42C172.192,364.42 172.241,364.411 172.289,364.393C172.337,364.375 172.368,364.334 172.405,364.301C172.412,364.295 172.42,364.292 172.427,364.286L172.431,364.281C172.45,364.26 172.471,364.245 172.485,364.221L179.42,356.509C179.505,356.415 179.541,356.285 179.517,356.161C178.679,351.832 176.045,350.332 175.934,350.271C175.768,350.178 175.556,350.214 175.43,350.361L172.134,354.186L168.838,350.361C168.713,350.214 168.501,350.178 168.335,350.271C168.223,350.332 165.59,351.832 164.752,356.161C164.728,356.285 164.764,356.415 164.849,356.509L171.784,364.221C171.798,364.245 171.818,364.26 171.837,364.281L171.842,364.286C171.848,364.292 171.857,364.295 171.864,364.301Z" style="fill-rule:nonzero;stroke-width:0.38px;"/>
            </g>
            <g transform="matrix(2.6067,0,0,2.6067,-49.8708,-487.729)">
                <path d="M153.363,392.265C153.42,392.373 153.523,392.45 153.644,392.474C153.669,392.479 153.696,392.482 153.722,392.482C153.816,392.482 153.909,392.449 153.982,392.387L162.187,385.535C162.355,385.395 162.381,385.148 162.248,384.975C162.232,384.955 160.703,382.942 161.001,379.5C161.282,376.26 163.294,371.096 171.282,364.898C171.371,364.829 171.427,364.726 171.437,364.614C171.447,364.501 171.41,364.391 171.334,364.307L167.368,359.889C167.247,359.753 167.048,359.715 166.887,359.796C166.767,359.855 154.943,365.801 151.548,376.248C149.876,381.393 150.486,386.782 153.363,392.265Z" style="fill-rule:nonzero;stroke-width:0.38px;"/>
            </g>
            <g transform="matrix(2.6067,0,0,2.6067,-49.8708,-487.729)">
                <path d="M167.92,368.502C167.797,368.488 167.673,368.534 167.586,368.624C167.451,368.763 164.249,372.104 162.272,376.957C162.227,377.069 162.233,377.196 162.292,377.303C162.328,377.369 165.933,383.946 171.784,389.675C171.796,389.694 171.815,389.705 171.831,389.722C171.841,389.732 171.85,389.742 171.86,389.752C171.864,389.756 171.87,389.754 171.873,389.757C171.904,389.784 171.928,389.819 171.968,389.836C172.018,389.857 172.072,389.868 172.125,389.868C172.128,389.868 172.131,389.864 172.134,389.864C172.138,389.864 172.14,389.868 172.144,389.868C172.197,389.868 172.25,389.857 172.301,389.836C172.34,389.819 172.364,389.784 172.396,389.757C172.399,389.754 172.405,389.756 172.408,389.752C172.418,389.742 172.428,389.732 172.438,389.722C172.453,389.705 172.473,389.694 172.485,389.675C178.336,383.946 181.941,377.369 181.977,377.303C182.035,377.196 182.042,377.069 181.996,376.957C180.02,372.104 176.818,368.763 176.683,368.624C176.595,368.534 176.472,368.488 176.348,368.502C176.224,368.515 176.113,368.584 176.047,368.69C174.171,371.691 172.703,373.219 172.134,373.758C171.566,373.219 170.098,371.691 168.222,368.69C168.155,368.584 168.044,368.515 167.92,368.502Z" style="fill-rule:nonzero;stroke-width:0.38px;"/>
            </g>
            <g transform="matrix(2.6067,0,0,2.6067,-49.8708,-487.729)">
                <path d="M190.286,392.387C190.36,392.449 190.452,392.482 190.546,392.482C190.573,392.482 190.599,392.479 190.625,392.474C190.745,392.45 190.848,392.373 190.905,392.265C193.782,386.782 194.393,381.393 192.721,376.248C189.325,365.801 177.501,359.855 177.382,359.796C177.221,359.715 177.021,359.753 176.901,359.889L172.934,364.307C172.858,364.391 172.821,364.501 172.832,364.614C172.841,364.726 172.898,364.829 172.987,364.898C180.975,371.096 182.986,376.26 183.267,379.5C183.565,382.942 182.037,384.955 182.021,384.975C181.887,385.148 181.914,385.395 182.082,385.535L190.286,392.387Z" style="fill-rule:nonzero;stroke-width:0.38px;"/>
            </g>
            <g transform="matrix(2.6067,0,0,2.6067,-49.8708,-487.729)">
                <path d="M172.484,417.104C173.23,416.314 181.362,407.7 183.044,405.075C183.106,404.979 183.124,404.859 183.093,404.748C183.034,404.534 181.59,399.447 177.14,395.558C176.982,395.42 176.748,395.424 176.595,395.567L172.134,399.76L167.674,395.567C167.521,395.424 167.286,395.42 167.129,395.558C162.679,399.447 161.234,404.534 161.175,404.748C161.145,404.859 161.163,404.979 161.225,405.075C162.906,407.7 171.038,416.314 171.784,417.104C171.797,417.125 171.817,417.138 171.834,417.157C171.837,417.159 171.847,417.169 171.849,417.172C171.858,417.182 171.872,417.186 171.883,417.195C171.914,417.22 171.937,417.254 171.975,417.27C172.023,417.289 172.074,417.298 172.125,417.298C172.128,417.298 172.131,417.296 172.134,417.296C172.138,417.296 172.141,417.298 172.144,417.298C172.194,417.298 172.245,417.289 172.293,417.27C172.332,417.254 172.355,417.22 172.386,417.195C172.396,417.186 172.41,417.182 172.42,417.172C172.422,417.169 172.432,417.159 172.434,417.157C172.451,417.138 172.471,417.125 172.484,417.104Z" style="fill-rule:nonzero;stroke-width:0.38px;"/>
            </g>
            <g transform="matrix(2.6067,0,0,2.6067,-49.8708,-487.729)">
                <path d="M153.919,420.436C153.998,420.521 154.107,420.567 154.218,420.567C154.286,420.567 154.353,420.551 154.415,420.516C154.608,420.41 159.161,417.87 161.359,414.903C161.458,414.77 161.466,414.589 161.379,414.448C161.309,414.335 154.597,403.008 171.266,391.327C171.359,391.261 171.421,391.159 171.436,391.045C171.45,390.933 171.416,390.818 171.342,390.731L165.662,384.06C165.528,383.902 165.299,383.871 165.129,383.984C164.523,384.385 150.292,393.939 148.794,406.14C148.17,411.231 149.894,416.041 153.919,420.436Z" style="fill-rule:nonzero;stroke-width:0.38px;"/>
            </g>
            <g transform="matrix(2.6067,0,0,2.6067,-49.8708,-487.729)">
                <path d="M189.854,420.516C189.916,420.551 189.983,420.567 190.05,420.567C190.161,420.567 190.271,420.521 190.349,420.436C194.375,416.041 196.099,411.231 195.474,406.14C193.977,393.939 179.745,384.385 179.14,383.984C178.97,383.871 178.741,383.902 178.606,384.06L172.926,390.731C172.853,390.818 172.819,390.933 172.833,391.045C172.848,391.159 172.909,391.261 173.002,391.327C189.672,403.008 182.959,414.335 182.89,414.448C182.803,414.589 182.811,414.77 182.909,414.903C185.108,417.87 189.661,420.41 189.854,420.516Z" style="fill-rule:nonzero;stroke-width:0.38px;"/>
            </g>
            <g transform="matrix(2.6067,0,0,2.6067,-49.8708,-487.729)">
                <path d="M168.531,423.047C168.464,422.947 168.358,422.882 168.239,422.869C168.122,422.856 168.002,422.895 167.916,422.976C167.894,422.996 165.709,425.041 161.639,428.555C161.551,428.63 161.5,428.742 161.499,428.858C161.498,428.976 161.547,429.087 161.635,429.165C161.691,429.215 167.257,434.141 171.895,436.581C171.903,436.587 171.906,436.597 171.915,436.602C171.926,436.608 171.939,436.606 171.951,436.612C171.952,436.613 171.954,436.614 171.956,436.614C171.968,436.621 171.981,436.619 171.994,436.624C172.038,436.639 172.08,436.661 172.125,436.661C172.128,436.661 172.131,436.658 172.134,436.658C172.138,436.658 172.141,436.661 172.144,436.661C172.189,436.661 172.231,436.639 172.274,436.624C172.287,436.619 172.301,436.621 172.313,436.614C172.315,436.614 172.316,436.613 172.318,436.612C172.33,436.606 172.343,436.608 172.354,436.602C172.362,436.597 172.366,436.587 172.374,436.581C177.012,434.141 182.578,429.215 182.634,429.165C182.721,429.087 182.771,428.976 182.77,428.858C182.769,428.742 182.718,428.63 182.629,428.555C178.56,425.041 176.375,422.996 176.353,422.976C176.266,422.895 176.147,422.856 176.029,422.869C175.911,422.882 175.804,422.947 175.738,423.047C174.957,424.219 172.816,425.61 172.134,426.036C171.453,425.61 169.312,424.219 168.531,423.047Z" style="fill-rule:nonzero;stroke-width:0.38px;"/>
            </g>
        </g>
        <g id="down_roots">
            <g transform="matrix(2.6067,0,0,2.6067,-49.8708,-487.729)">
                <path d="M184.274,443.517C184.158,443.5 184.042,443.532 183.953,443.608C183.895,443.657 178.022,448.554 172.134,449.276C166.247,448.554 160.375,443.657 160.315,443.608C160.227,443.532 160.11,443.5 159.994,443.517C156.781,443.993 155.143,447.116 155.075,447.249C154.996,447.403 155.023,447.591 155.143,447.715C164.238,457.17 171.761,458.511 172.077,458.564C172.091,458.566 172.105,458.566 172.12,458.567C172.122,458.567 172.123,458.569 172.125,458.569C172.128,458.569 172.131,458.568 172.134,458.568C172.137,458.568 172.141,458.569 172.144,458.569C172.146,458.569 172.147,458.567 172.148,458.567C172.163,458.566 172.177,458.566 172.191,458.564C172.507,458.511 180.031,457.17 189.125,447.715C189.246,447.591 189.273,447.403 189.194,447.249C189.125,447.116 187.488,443.993 184.274,443.517Z" style="fill-rule:nonzero;stroke-width:0.38px;"/>
            </g>
            <g transform="matrix(2.6067,0,0,2.6067,-49.8708,-487.729)">
                <path d="M224.275,440.745C221.844,439.814 217.978,438.183 217.295,437.5C217.209,437.416 217.089,437.375 216.972,437.383C216.853,437.394 216.744,437.457 216.675,437.556C216.633,437.616 212.395,443.588 205.496,443.588C203.139,443.588 200.712,442.894 198.281,441.525C196.529,440.539 194.867,439.128 193.201,437.213C191.91,435.729 188.799,432.981 182.47,431.265C182.343,431.229 182.205,431.26 182.103,431.346C182.043,431.396 176.126,436.336 172.134,437.625C168.143,436.336 162.226,431.396 162.166,431.346C162.063,431.26 161.925,431.229 161.798,431.265C155.47,432.981 152.358,435.729 151.067,437.213C149.401,439.128 147.74,440.539 145.987,441.525C143.557,442.894 141.129,443.588 138.773,443.588C131.874,443.588 127.635,437.616 127.594,437.556C127.525,437.457 127.416,437.394 127.296,437.383C127.179,437.375 127.059,437.416 126.974,437.5C126.291,438.183 122.425,439.814 119.993,440.745C119.881,440.788 119.793,440.878 119.754,440.991C119.715,441.105 119.729,441.23 119.791,441.333C124.274,448.774 130.25,452.547 137.552,452.547L137.554,452.547C143.503,452.546 148.865,449.96 151.532,448.419C152.66,447.768 153.747,446.918 154.765,445.896C157.331,443.317 160.016,442.01 162.746,442.01C167.768,442.01 171.422,446.456 171.783,446.911C171.831,446.995 171.9,447.065 171.996,447.098C172.004,447.1 172.013,447.096 172.021,447.098C172.057,447.109 172.096,447.098 172.134,447.099C172.172,447.098 172.211,447.109 172.248,447.098C172.256,447.096 172.264,447.1 172.272,447.098C172.369,447.065 172.438,446.995 172.485,446.911C172.847,446.456 176.501,442.01 181.522,442.01C184.253,442.01 186.938,443.317 189.503,445.896C190.521,446.918 191.609,447.768 192.736,448.419C195.403,449.96 200.765,452.546 206.714,452.547L206.716,452.547C214.018,452.547 219.994,448.774 224.478,441.333C224.54,441.23 224.553,441.105 224.514,440.991C224.475,440.878 224.388,440.788 224.275,440.745Z" style="fill-rule:nonzero;stroke-width:0.38px;"/>
            </g>
            <g transform="matrix(2.6067,0,0,2.6067,-49.8708,-487.729)">
                <path d="M197.816,440.687C197.887,440.737 197.969,440.763 198.052,440.763C198.131,440.763 198.21,440.739 198.28,440.693C203.535,437.136 208.755,436.389 212.21,436.389C214.21,436.389 215.469,436.649 215.481,436.651C215.659,436.691 215.84,436.604 215.924,436.444C216.009,436.283 215.977,436.086 215.846,435.961C212.516,432.788 208.5,431.335 208.331,431.274C207.748,431.207 207.251,431.184 206.757,431.184C199.72,431.184 194.296,435.752 194.069,435.946C193.979,436.023 193.927,436.136 193.927,436.255C193.927,437.826 197.167,440.223 197.816,440.687Z" style="fill-rule:nonzero;stroke-width:0.38px;"/>
            </g>
            <g transform="matrix(2.6067,0,0,2.6067,-49.8708,-487.729)">
                <path d="M135.938,431.274C135.768,431.335 131.752,432.788 128.423,435.961C128.292,436.086 128.259,436.283 128.343,436.444C128.429,436.604 128.61,436.691 128.787,436.651C128.798,436.649 130.059,436.389 132.059,436.389C135.513,436.389 140.734,437.136 145.989,440.693C146.058,440.739 146.137,440.763 146.217,440.763C146.299,440.763 146.382,440.737 146.453,440.687C147.102,440.223 150.341,437.826 150.341,436.255C150.341,436.136 150.29,436.023 150.199,435.946C149.972,435.752 144.548,431.184 137.511,431.184C137.018,431.184 136.521,431.207 135.938,431.274Z" style="fill-rule:nonzero;stroke-width:0.38px;"/>
            </g>
            <g transform="matrix(2.6067,0,0,2.6067,-49.8708,-487.729)">
                <path d="M230.614,431.43C230.624,431.431 230.635,431.431 230.645,431.431C230.8,431.431 230.943,431.342 231.01,431.201C234.96,422.989 242.772,422.24 242.85,422.233C243.033,422.218 243.183,422.082 243.215,421.902C243.928,418.016 245.874,415.763 245.894,415.741C245.991,415.629 246.021,415.474 245.97,415.334C245.919,415.195 245.797,415.095 245.651,415.072C244.364,414.872 243.091,414.771 241.866,414.771C227.63,414.771 222.404,428.38 222.353,428.517C222.291,428.685 222.345,428.873 222.487,428.981C225.122,430.992 230.391,431.413 230.614,431.43Z" style="fill-rule:nonzero;stroke-width:0.38px;"/>
            </g>
            <g transform="matrix(2.6067,0,0,2.6067,-49.8708,-487.729)">
                <path d="M101.053,421.902C101.086,422.082 101.236,422.218 101.418,422.233C101.497,422.24 109.308,422.989 113.258,431.201C113.326,431.342 113.468,431.431 113.624,431.431C113.634,431.431 113.645,431.431 113.654,431.43C113.877,431.413 119.146,430.992 121.782,428.981C121.924,428.873 121.978,428.685 121.916,428.517C121.864,428.38 116.639,414.771 102.402,414.771C101.178,414.771 99.904,414.872 98.617,415.072C98.471,415.095 98.349,415.195 98.298,415.334C98.248,415.474 98.277,415.629 98.375,415.741C98.394,415.763 100.341,418.016 101.053,421.902Z" style="fill-rule:nonzero;stroke-width:0.38px;"/>
            </g>
            <g transform="matrix(2.6067,0,0,2.6067,-49.8708,-487.729)">
                <path d="M266.021,408.637C265.911,408.568 265.774,408.558 265.654,408.605C265.112,408.826 263.169,409.001 262.466,409.05C262.287,409.062 262.138,409.19 262.097,409.364C260.689,415.513 254.386,416.482 254.322,416.491C254.179,416.511 254.058,416.606 254.004,416.739C252.65,420.055 252.044,423.442 252.019,423.584C251.999,423.696 252.027,423.811 252.096,423.901C252.165,423.991 252.268,424.048 252.381,424.059C252.971,424.114 253.552,424.141 254.107,424.141L254.108,424.141C257.665,424.141 260.515,423.017 262.579,420.801C266.693,416.382 266.233,409.253 266.212,408.952C266.202,408.823 266.132,408.706 266.021,408.637Z" style="fill-rule:nonzero;stroke-width:0.38px;"/>
            </g>
            <g transform="matrix(2.6067,0,0,2.6067,-49.8708,-487.729)">
                <path d="M89.946,416.491C89.882,416.482 83.579,415.513 82.17,409.364C82.13,409.19 81.981,409.062 81.802,409.05C81.099,409.001 79.156,408.826 78.614,408.605C78.494,408.558 78.357,408.568 78.247,408.637C78.136,408.706 78.066,408.823 78.057,408.952C78.035,409.253 77.575,416.382 81.689,420.801C83.752,423.017 86.602,424.141 90.16,424.141L90.162,424.141C90.716,424.141 91.297,424.114 91.887,424.059C92.001,424.048 92.104,423.991 92.172,423.901C92.241,423.811 92.269,423.696 92.249,423.584C92.224,423.442 91.618,420.055 90.265,416.739C90.21,416.606 90.089,416.511 89.946,416.491Z" style="fill-rule:nonzero;stroke-width:0.38px;"/>
            </g>
            <g transform="matrix(2.6067,0,0,2.6067,-49.8708,-487.729)">
                <path d="M274.665,386.69C274.472,386.758 274.36,386.96 274.404,387.161C274.418,387.223 275.747,393.455 272.329,398.28C270.14,401.37 266.491,403.242 261.484,403.845C261.362,403.854 247.644,405.165 243.435,423.768C243.366,424.114 241.681,432 232.028,432C228.794,432 225.001,431.098 220.756,429.32C218.684,428.453 216.6,427.265 214.385,425.688C212.267,424.181 207.815,421.651 201.807,421.651C200.117,421.651 198.391,421.851 196.676,422.245C196.592,422.274 195.759,422.641 194.348,422.641C191.568,422.641 185.964,421.188 179.662,411.465C179.594,411.361 179.481,411.292 179.356,411.282C179.23,411.272 179.109,411.318 179.024,411.41L172.938,417.969C172.8,418.118 172.793,418.347 172.923,418.504C172.988,418.582 179.485,426.352 187.794,429.684C191.115,431.016 194.883,431.34 198.605,430.618C200.025,430.342 201.469,430.202 202.896,430.202C207.187,430.202 210.904,431.44 213.947,433.883C218.688,437.688 224.001,439.919 229.313,440.333C230.247,440.407 231.171,440.443 232.059,440.443C239.665,440.444 249.146,437.699 251.129,424.617C251.145,424.449 252.5,410.274 263.541,408.577C265.92,408.211 268.092,407.515 269.996,406.507C274.403,404.173 280.933,398.522 275.164,386.892C275.072,386.708 274.861,386.621 274.665,386.69Z" style="fill-rule:nonzero;stroke-width:0.38px;"/>
            </g>
            <g transform="matrix(2.6067,0,0,2.6067,-49.8708,-487.729)">
                <path d="M141.372,430.202C142.799,430.202 144.243,430.342 145.663,430.618C149.386,431.34 153.153,431.016 156.474,429.684C164.783,426.352 171.281,418.582 171.346,418.504C171.475,418.347 171.469,418.118 171.331,417.969L165.245,411.41C165.159,411.318 165.039,411.272 164.913,411.282C164.788,411.292 164.675,411.361 164.607,411.465C158.305,421.188 152.7,422.641 149.921,422.641C148.509,422.641 147.677,422.274 147.592,422.245C145.877,421.851 144.151,421.651 142.461,421.651C136.454,421.651 132.002,424.181 129.882,425.688C127.668,427.265 125.585,428.453 123.513,429.32C119.267,431.098 115.475,432 112.24,432C102.587,432 100.903,424.114 100.833,423.768C96.624,405.165 82.906,403.854 82.784,403.845C77.777,403.242 74.128,401.37 71.939,398.28C68.521,393.455 69.85,387.223 69.864,387.161C69.908,386.96 69.796,386.758 69.603,386.69C69.407,386.621 69.195,386.708 69.104,386.892C63.335,398.522 69.865,404.173 74.272,406.507C76.176,407.515 78.348,408.211 80.727,408.577C91.768,410.274 93.124,424.449 93.139,424.617C95.122,437.699 104.604,440.444 112.209,440.443C113.098,440.443 114.021,440.407 114.956,440.333C120.268,439.919 125.581,437.688 130.322,433.883C133.364,431.44 137.082,430.202 141.372,430.202Z" style="fill-rule:nonzero;stroke-width:0.38px;"/>
            </g>
        </g>
    </g>
</svg>
